/* XPM */
static char * eclipse_icon_3_7_xpm[] = {
"48 48 364 2",
"  	c None",
". 	c #695AE8",
"+ 	c #404081",
"@ 	c #414083",
"# 	c #414184",
"$ 	c #424185",
"% 	c #424187",
"& 	c #434189",
"* 	c #44428B",
"= 	c #45428E",
"- 	c #464391",
"; 	c #474393",
"> 	c #484396",
", 	c #494498",
"' 	c #4A4599",
") 	c #4A449C",
"! 	c #4B459E",
"~ 	c #4C45A1",
"{ 	c #4D45A3",
"] 	c #4E45A4",
"^ 	c #4E46A7",
"/ 	c #4F47A8",
"( 	c #5047AB",
"_ 	c #5047AC",
": 	c #494991",
"< 	c #434288",
"[ 	c #484496",
"} 	c #4C459F",
"| 	c #4D46A2",
"1 	c #4E46A3",
"2 	c #4D45A4",
"3 	c #4E46A5",
"4 	c #5047A9",
"5 	c #4F46AA",
"6 	c #434286",
"7 	c #45448D",
"8 	c #46458A",
"9 	c #525093",
"0 	c #6D5E9E",
"a 	c #9275B2",
"b 	c #A77DB5",
"c 	c #9A83BA",
"d 	c #7F7DBD",
"e 	c #7574B8",
"f 	c #7373BA",
"g 	c #7D73B6",
"h 	c #7769B1",
"i 	c #5F5FA7",
"j 	c #554D9F",
"k 	c #4B45A0",
"l 	c #4D46A1",
"m 	c #5A5897",
"n 	c #898FA5",
"o 	c #6FC679",
"p 	c #65D164",
"q 	c #69C872",
"r 	c #7CA2A7",
"s 	c #8080C1",
"t 	c #7979BF",
"u 	c #7676BC",
"v 	c #7171B7",
"w 	c #6F6FB5",
"x 	c #6D6DB4",
"y 	c #54888B",
"z 	c #449A73",
"A 	c #429871",
"B 	c #44966F",
"C 	c #388C6A",
"D 	c #338668",
"E 	c #318368",
"F 	c #318369",
"G 	c #3D6782",
"H 	c #68DB68",
"I 	c #02F802",
"J 	c #20ED26",
"K 	c #33E140",
"L 	c #16EC1D",
"M 	c #00F800",
"N 	c #40C95A",
"O 	c #6B6AB2",
"P 	c #1FCC35",
"Q 	c #00F900",
"R 	c #269E50",
"S 	c #444287",
"T 	c #5F5D99",
"U 	c #CFA9CC",
"V 	c #87DD83",
"W 	c #7ED692",
"X 	c #B8B6DC",
"Y 	c #AAABD5",
"Z 	c #4ECD67",
"` 	c #539C85",
" .	c #6969AF",
"..	c #6666AE",
"+.	c #6464AC",
"@.	c #6161A9",
"#.	c #5D5DA5",
"$.	c #5B59A2",
"%.	c #319E58",
"&.	c #0EDB1C",
"*.	c #4B5099",
"=.	c #4D46A4",
"-.	c #5147AE",
";.	c #7F72A7",
">.	c #D9BCD8",
",.	c #EAD7E8",
"'.	c #98E5A3",
").	c #71E37E",
"!.	c #C4C4E3",
"~.	c #A5A5D3",
"{.	c #989DCA",
"].	c #01F702",
"^.	c #36BF56",
"/.	c #6868B0",
"(.	c #6463AC",
"_.	c #6261A9",
":.	c #5A5AA2",
"<.	c #437B7B",
"[.	c #03F206",
"}.	c #436F7F",
"|.	c #504F98",
"1.	c #4D4A9C",
"2.	c #DEDCEE",
"3.	c #D1D1E9",
"4.	c #ABABD6",
"5.	c #8CAAB8",
"6.	c #44BB63",
"7.	c #6666AD",
"8.	c #6262A9",
"9.	c #555B9B",
"0.	c #0DDF18",
"a.	c #26AA48",
"b.	c #4D4D96",
"c.	c #4A4A93",
"d.	c #E5E5F3",
"e.	c #C0C4DF",
"f.	c #B2B8D5",
"g.	c #88BAAA",
"h.	c #22E52D",
"i.	c #14EA1C",
"j.	c #7B8AB2",
"k.	c #7777B9",
"l.	c #5857A0",
"m.	c #2F9D57",
"n.	c #05ED0A",
"o.	c #4A588F",
"p.	c #4D4C95",
"q.	c #4A4993",
"r.	c #474790",
"s.	c #45448E",
"t.	c #514B90",
"u.	c #E7CAE0",
"v.	c #D8CAE3",
"w.	c #9FDAB2",
"x.	c #1FE52A",
"y.	c #7F9CB1",
"z.	c #6162A9",
"A.	c #57589F",
"B.	c #525A98",
"C.	c #07E90E",
"D.	c #26A848",
"E.	c #42418B",
"F.	c #3F3F89",
"G.	c #454097",
"H.	c #B687B9",
"I.	c #BBC6D9",
"J.	c #9FCDB8",
"K.	c #8FC4AB",
"L.	c #69C386",
"M.	c #21E32C",
"N.	c #06F309",
"O.	c #629992",
"P.	c #6464AB",
"Q.	c #55559D",
"R.	c #348D63",
"S.	c #436281",
"T.	c #484790",
"U.	c #42428B",
"V.	c #3C3C86",
"W.	c #3A3983",
"X.	c #5148AE",
"Y.	c #7B63A3",
"Z.	c #A0A0CF",
"`.	c #9294C5",
" +	c #19E224",
".+	c #0DEA15",
"++	c #52529B",
"@+	c #17C72C",
"#+	c #0ED71C",
"$+	c #3D3B86",
"%+	c #373681",
"&+	c #393786",
"*+	c #4941A0",
"=+	c #BDA3CD",
"-+	c #A9BBCA",
";+	c #ADB9CF",
">+	c #9898CB",
",+	c #8C8CC5",
"'+	c #39C155",
")+	c #606EA3",
"!+	c #6162AA",
"~+	c #58579F",
"{+	c #4D5195",
"]+	c #02F205",
"^+	c #20AB41",
"/+	c #34347E",
"(+	c #31317C",
"_+	c #3D398F",
":+	c #CE92BF",
"<+	c #C399C7",
"[+	c #9C9BCF",
"}+	c #9FA0D1",
"|+	c #9AB2C1",
"1+	c #03F704",
"2+	c #4FD463",
"3+	c #1ED62F",
"4+	c #07EE0D",
"5+	c #6364AA",
"6+	c #5E60A5",
"7+	c #58649D",
"8+	c #565F9C",
"9+	c #4F4F98",
"0+	c #3F6B7A",
"a+	c #2C895A",
"b+	c #3A3984",
"c+	c #34337E",
"d+	c #2E2E79",
"e+	c #2F2E7C",
"f+	c #5048AC",
"g+	c #5247AF",
"h+	c #C88CBB",
"i+	c #A88DC4",
"j+	c #9090C9",
"k+	c #9592C9",
"l+	c #4FCD66",
"m+	c #46CC5D",
"n+	c #7BA3A7",
"o+	c #8094B4",
"p+	c #66979B",
"q+	c #2DC746",
"r+	c #3AA263",
"s+	c #487F80",
"t+	c #12D622",
"u+	c #328164",
"v+	c #33706A",
"w+	c #42418C",
"x+	c #2E2D79",
"y+	c #2C2B77",
"z+	c #292874",
"A+	c #3B368E",
"B+	c #C28ABA",
"C+	c #8582C1",
"D+	c #58B87B",
"E+	c #13EA1B",
"F+	c #15DC23",
"G+	c #419470",
"H+	c #467C7E",
"I+	c #12D521",
"J+	c #2C8A59",
"K+	c #356470",
"L+	c #31317B",
"M+	c #272672",
"N+	c #2D2A7B",
"O+	c #4E45A9",
"P+	c #5248AF",
"Q+	c #876CAA",
"R+	c #6C82A8",
"S+	c #5E839A",
"T+	c #6271A4",
"U+	c #41428B",
"V+	c #2B2C77",
"W+	c #24236F",
"X+	c #22216C",
"Y+	c #423A9C",
"Z+	c #8EA6D6",
"`+	c #90A7D7",
" @	c #91A9D7",
".@	c #95ABD8",
"+@	c #99AFDA",
"@@	c #9DB2DC",
"#@	c #A1B5DD",
"$@	c #A5B8DE",
"%@	c #A9BBE0",
"&@	c #ACBDE1",
"*@	c #AEC0E2",
"=@	c #B0C1E3",
"-@	c #B2C3E3",
";@	c #B4C4E4",
">@	c #B6C5E5",
",@	c #B8C7E5",
"'@	c #BBC9E6",
")@	c #5247B0",
"!@	c #6B6AB1",
"~@	c #5758A0",
"{@	c #1F1E6A",
"]@	c #1D1C68",
"^@	c #2D2A7F",
"/@	c #4A4A94",
"(@	c #272671",
"_@	c #1A1966",
":@	c #242075",
"<@	c #5248B1",
"[@	c #55559E",
"}@	c #21216D",
"|@	c #181764",
"1@	c #161562",
"2@	c #141360",
"3@	c #5858A0",
"4@	c #14135F",
"5@	c #5348B3",
"6@	c #6262AA",
"7@	c #2B2B77",
"8@	c #24246F",
"9@	c #11115E",
"0@	c #100F5C",
"a@	c #1D186A",
"b@	c #161561",
"c@	c #0D0D5A",
"d@	c #2A2974",
"e@	c #272571",
"f@	c #0C0B58",
"g@	c #0A0957",
"h@	c #3E3698",
"i@	c #5348B4",
"j@	c #57579F",
"k@	c #171567",
"l@	c #4F44AC",
"m@	c #5449B3",
"n@	c #080755",
"o@	c #2B2681",
"p@	c #5449B5",
"q@	c #735FAD",
"r@	c #6760A5",
"s@	c #0F0D5C",
"t@	c #2C2C77",
"u@	c #070553",
"v@	c #28237D",
"w@	c #505098",
"x@	c #0B0B58",
"y@	c #131164",
"z@	c #433B9F",
"A@	c #131360",
"B@	c #332C89",
"C@	c #27227D",
"D@	c #5449B7",
"E@	c #5549B8",
"F@	c #6454A9",
"G@	c #211D76",
"H@	c #4A40A8",
"I@	c #5549BA",
"J@	c #4A4389",
"K@	c #665495",
"L@	c #3B357D",
"M@	c #554AB9",
"N@	c #5B4EAD",
"O@	c #625192",
"P@	c #493E82",
"Q@	c #332C77",
"R@	c #1C1A64",
"S@	c #5649B9",
"T@	c #5649BA",
"U@	c #5148AD",
"V@	c #564ABA",
"W@	c #554ABA",
"  . . . . . . . . . . . . . . . . . . . . . . . . . . . . . . . . . . . . . . . . . . . . . .   ",
". + + + @ @ @ @ # $ % % % & & & * * = = = - - - ; ; > > , ' ' ) ) ! ! ~ ~ { { ] ^ ^ ^ / ( ( _ : ",
". + + + + @ @ # $ $ % % & < & * * * = = = - - ; ; [ [ [ , , ' ) ! ! } ~ ~ | 1 2 3 ^ / 4 5 ( _ : ",
". + + + + @ @ @ $ $ 6 % % < & * * * 7 = = - - ; ; > > [ , , ' ) ) ! } } ~ { { ] ^ ^ / 4 ( ( _ : ",
". + @ + @ @ # @ # % % % & < 8 9 0 a b b c c d d e f e g h i j ! ) ! k ~ l { { ] 3 ^ / 4 5 ( _ : ",
". + @ @ @ @ @ $ $ % % % 8 m n o p q r s t t u f f v w x y z A B C D E F G | ] ] ^ / / 4 ( ( _ : ",
". @ @ @ @ @ $ $ $ % 6 9 c H I J K L M N t u f f v w x O P Q Q Q Q Q Q Q R | 2 3 ^ ^ / 4 5 ( _ : ",
". $ # @ # $ $ % % S T U V M W X X Y Z Q ` f f v w x O  ...+.@.i #.$.%.&.*.{ =.] ^ / / ( ( ( -.: ",
". $ # $ $ $ $ $ S ;.>.,.'.).!.!.X ~.{.].^.f v w x O /...(._.i #.:.<.[.}.|.1.| 3 ^ ^ / 4 5 _ _ : ",
". $ $ $ $ $ % 6 ;.>.,.2.2.2.3.!.X 4.5.M 6.u w x O /.7.+.8.i #.$.9.0.a.|.b.c.' | ^ / / 5 ( ( -.: ",
". % $ % 6 % % 0 >.,.2.2.d.2.3.e.f.g.h.i.j.k.x O  ...(._.i #.:.l.m.n.o.p.q.r.s.> { ^ 4 ( ( _ -.: ",
". % % % 6 % t.U u.v.3.2.2.2.w.Q Q Q x.y.s e O /...+.z.i #.:.A.B.C.D.b.c.r.s.E.F.G./ 5 ( ( _ -.: ",
". % % % < < H.>.>.!.!.3.3.3.I.J.K.L.M.N.O.w  ...P.8.i #.:.l.Q.R.Q S.c.T.s.U.F.V.W.G.5 ( _ _ X.: ",
". & & & < Y.U U X X !.!.!.!.!.X 4.Z.`. +.+x ..(._.i #.:.l.Q.++@+#+c.r.s.U.F.$+W.%+&+*+( ( _ -.: ",
". & & & S H.U =+~.X X X -+;+4.4.Z.>+,+'+Q )+P.!+i #.:.~+Q.++{+]+^+r.s.U.F.$+W.%+/+(+_+( _ _ -.: ",
". * * * Y.:+<+[+}+~.4.|+1+2+~.Z.>+,+s 3+4+5+_.6+7+8+l.Q.++9+0+Q a+s.E.F.$+b+%+c+(+d+e+*+f+X.g+: ",
". * * * b h+i+j+k+[+[+}+l+M m+n+o+p+q+Q r+_.i s+Q t+Q.++|.p.u+Q v+w+F.$+W.%+c+(+x+y+z+A+_ -.X.: ",
". * * t.h+B+C+C+,+j+j+k+j+D+E+Q Q Q F+G+_.i #.H+Q I+++|.b.q.J+Q K+F.$+b+%+c+L+d+y+z+M+N+O+-.P+: ",
". = E.Q+h+H.t t s s C+C+C+s d R+S+T++.z.i #.:.l.Q.++|.p.c.T.s.U+F.$+W.%+c+L+d+V+z+M+W+X+Y+X.P+: ",
". = * b h+Z+Z+`+`+`+ @.@.@.@.@+@+@+@+@@@@@#@#@#@$@$@$@%@%@%@&@*@*@=@=@-@;@>@>@>@,@,@'@'@'@P+)@: ",
". = = H.h+c u u f f v w x !@/...P.8.i #.:.~@Q.++|.b.c.T.s.E.F.$+b+%+/+L+d+y+z+M+W+X+{@]@^@g+)@: ",
". - = B+h+d u f f v w x O /...P.8.i #.$.l.Q.++9+p./@T.7 w+F.V.b+%+c+L+d+y+z+(@W+X+{@]@_@:@)@)@: ",
". - - h+h+Z+Z+Z+`+ @ @.@.@.@.@+@+@+@+@@@@@@@#@#@$@$@$@%@%@&@&@*@*@=@=@;@;@;@>@,@,@,@'@'@'@)@<@: ",
". ; - h+h+u f v w x O /.7.P._.i #.:.l.[@++|.p.c.T.s.w+F.V.b+%+c+(+d+y+z+M+W+}@{@]@_@|@1@2@)@<@: ",
". ; ; h+h+e v w x O /.7.(._.i #.:.3@Q.++|.b.c.r.7 w+F.$+W.%+c+(+d+V+z+(@W+X+{@]@_@|@1@2@4@<@5@: ",
". ; ; h+h+Z+Z+`+`+ @ @ @.@.@.@+@+@+@+@@@@@#@#@#@$@$@$@%@%@&@&@*@*@=@-@-@;@>@>@,@,@,@'@'@'@<@<@: ",
". [ > B+h+g x O /...(.6@i #.:.l.[@++|.p.c.r.s.U.F.$+W.%+/+L+d+7@z+(@8@}@{@]@_@|@1@4@9@0@a@<@5@: ",
". [ > H.B+a O /.7.P.!+i #.:.l.Q.++9+p.c.r.s.U.F.$+W.%+/+(+x+7@z+M+W+X+{@]@_@|@b@4@9@0@c@:@5@5@: ",
". , , b B+Z+Z+Z+`+ @ @.@.@.@.@+@+@+@@@@@@@@@#@#@$@$@$@%@%@&@&@*@*@=@=@-@;@>@>@>@,@,@'@'@'@5@5@: ",
". , , Q+B+b ..P.z.i #.:.l.Q.++9+p.c.r.7 U.F.V.W.%+c+(+d+y+d@e@W+}@{@]@_@|@1@2@9@0@c@f@g@h@5@i@: ",
". , ) j B+H.h @.i #.:.j@Q.++|.b.c.T.s.U.F.$+b+%+/+(+d+y+z+(@W+X+{@]@_@|@b@4@9@0@c@f@g@k@l@m@i@: ",
". ) ) , b B+a i #.:.~+Q.++|.b.c.T.s.w+F.V.W.%+/+(+d+y+z+(@W+X+{@]@_@|@b@2@9@0@c@f@g@n@o@5@p@p@: ",
". ) ) ) q@B+b r@:.l.[@++9+b.q.r.s.E.F.V.W.%+/+(+d+7@d@M+W+}@{@]@_@|@b@2@9@0@c@f@g@n@s@Y+i@p@p@: ",
". ! ! ) ) b B+Q+l.Q.++|.b.c.T.s.U+F.V.W.%+c+(+d+t@z+M+W+}@{@]@_@|@1@4@9@0@c@f@g@n@u@v@m@i@p@p@: ",
". } ! k } q@H.b r@++w@p.q.r.s.w+F.V.W.%+c+L+d+y+d@(@W+}@{@]@_@|@1@2@9@s@c@x@g@n@u@y@z@i@p@p@p@: ",
". } } k ~ } a H.a w@p.q.r.s.U.F.V.b+%+c+L+d+7@z+(@W+X+{@]@_@|@1@A@9@0@c@x@g@n@u@u@B@p@i@p@p@p@: ",
". ~ ~ ~ ~ { l b H.Y.c.r.s.w+F.$+b+%+/+(+d+y+d@(@W+X+{@]@_@|@1@A@9@0@c@x@g@n@u@u@C@i@p@p@p@D@E@: ",
". | | | | | | F@b b 0 s.U.F.V.b+%+/+L+d+y+z+M+W+}@{@]@_@|@1@4@9@0@c@f@g@n@u@u@G@H@i@p@p@p@E@E@: ",
". { { =.{ 1 1 =.F@b b 0 F.$+b+%+/+(+d+y+d@(@W+X+{@]@_@|@1@4@9@0@c@f@g@n@u@u@G@H@p@p@p@p@D@E@E@: ",
". 3 3 =.] =.3 3 3 F@c b 0 W.%+c+(+d+y+d@(@W+}@{@]@_@|@1@4@9@0@c@f@g@n@u@u@C@H@i@p@p@p@D@D@E@I@: ",
". 3 ^ 3 ^ ^ ^ ^ ^ ^ ^ a H.Y.J@L+x+y+d@(@W+X+{@]@_@|@b@4@9@0@c@f@g@n@u@y@B@i@i@p@p@p@p@E@E@I@I@: ",
". ^ ^ ^ ^ ^ ^ ^ / / O+O+q@a a K@L@z+M+W+X+{@]@_@|@b@A@9@0@c@f@g@n@0@v@z@i@p@i@p@p@p@E@E@E@I@M@: ",
". / ^ / / / / / / 5 5 O+4 4 q@a Q+K@L@X+{@]@_@|@1@2@9@0@c@f@g@a@o@Y+5@i@i@p@p@D@p@E@E@E@I@I@I@: ",
". 4 5 4 4 4 4 5 5 4 4 ( ( ( ( ( N@h Q+Y.O@P@Q@X+b@2@R@W+Q@B@h@l@5@i@i@i@p@p@D@D@D@E@I@M@S@T@I@: ",
". ( 5 5 ( 5 ( 5 ( ( ( ( ( _ _ _ U@-.)@X.g+-.P+-.P+)@)@<@)@5@5@5@i@p@i@p@p@D@E@E@E@E@I@M@I@T@V@: ",
". ( ( ( ( ( ( ( ( ( ( _ _ _ -.-.U@X.X.P+P+P+)@)@)@<@<@5@5@5@i@i@p@i@p@p@D@E@E@E@I@I@I@W@V@T@V@: ",
". _ _ _ _ _ _ _ _ -._ U@-.U@-.g+X.g+g+P+)@)@)@<@<@<@5@5@5@5@p@p@p@p@p@E@D@E@E@E@E@M@V@V@T@V@V@: ",
"  : : : : : : : : : : : : : : : : : : : : : : : : : : : : : : : : : : : : : : : : : : : : : :   "};
