/* XPM */
static char * eclipse_icon_3_6_xpm[] = {
"48 48 403 2",
"  	c None",
". 	c #695AE8",
"+ 	c #404081",
"@ 	c #414083",
"# 	c #414184",
"$ 	c #424185",
"% 	c #424187",
"& 	c #434189",
"* 	c #44428B",
"= 	c #45428E",
"- 	c #464391",
"; 	c #474393",
"> 	c #484396",
", 	c #494498",
"' 	c #4A4599",
") 	c #4A449C",
"! 	c #4B459E",
"~ 	c #4C45A1",
"{ 	c #4D45A3",
"] 	c #4E45A4",
"^ 	c #4E46A7",
"/ 	c #4F47A8",
"( 	c #5047AB",
"_ 	c #5047AC",
": 	c #494991",
"< 	c #434288",
"[ 	c #484496",
"} 	c #4C459F",
"| 	c #4D46A2",
"1 	c #4E46A3",
"2 	c #4D45A4",
"3 	c #4E46A5",
"4 	c #5047A9",
"5 	c #4F46AA",
"6 	c #434286",
"7 	c #45448D",
"8 	c #46458A",
"9 	c #525093",
"0 	c #6D5E9E",
"a 	c #9275B2",
"b 	c #A77DB5",
"c 	c #9A83BA",
"d 	c #7F7DBD",
"e 	c #7574B8",
"f 	c #7373BA",
"g 	c #7D73B6",
"h 	c #7769B1",
"i 	c #5F5FA7",
"j 	c #554D9F",
"k 	c #4B45A0",
"l 	c #4D46A1",
"m 	c #5A5897",
"n 	c #898FA5",
"o 	c #6FC679",
"p 	c #65D164",
"q 	c #69C872",
"r 	c #7CA2A7",
"s 	c #8080C1",
"t 	c #7979BF",
"u 	c #7676BC",
"v 	c #7171B7",
"w 	c #6F6FB5",
"x 	c #6D6DB4",
"y 	c #6B6AB1",
"z 	c #6868B0",
"A 	c #626BA7",
"B 	c #449570",
"C 	c #2BA651",
"D 	c #2A9A56",
"E 	c #3B6C7C",
"F 	c #68DB68",
"G 	c #02F802",
"H 	c #20ED26",
"I 	c #33E140",
"J 	c #16EC1D",
"K 	c #00F800",
"L 	c #40C95A",
"M 	c #6B6AB2",
"N 	c #508489",
"O 	c #0AE912",
"P 	c #03F405",
"Q 	c #12DA20",
"R 	c #0EE119",
"S 	c #00F900",
"T 	c #1CBA39",
"U 	c #4B469F",
"V 	c #444287",
"W 	c #5F5D99",
"X 	c #CFA9CC",
"Y 	c #87DD83",
"Z 	c #7ED692",
"` 	c #B8B6DC",
" .	c #AAABD5",
"..	c #4ECD67",
"+.	c #539C85",
"@.	c #6969AF",
"#.	c #5D729F",
"$.	c #08EC0E",
"%.	c #18D22B",
"&.	c #566C98",
"*.	c #5D5DA5",
"=.	c #5B59A2",
"-.	c #3A8D6A",
";.	c #00F701",
">.	c #2B9857",
",.	c #4D46A4",
"'.	c #5147AE",
").	c #7F72A7",
"!.	c #D9BCD8",
"~.	c #EAD7E8",
"{.	c #98E5A3",
"].	c #71E37E",
"^.	c #C4C4E3",
"/.	c #A5A5D3",
"(.	c #989DCA",
"_.	c #01F702",
":.	c #36BF56",
"<.	c #6666AE",
"[.	c #2FB250",
"}.	c #05F009",
"|.	c #566C97",
"1.	c #5A5AA2",
"2.	c #5857A0",
"3.	c #55559D",
"4.	c #32925F",
"5.	c #3C7773",
"6.	c #4D4A9C",
"7.	c #DEDCEE",
"8.	c #D1D1E9",
"9.	c #ABABD6",
"0.	c #8CAAB8",
"a.	c #44BB63",
"b.	c #6666AD",
"c.	c #6464AC",
"d.	c #0DE416",
"e.	c #21C23B",
"f.	c #565A9C",
"g.	c #53579A",
"h.	c #52529B",
"i.	c #504F98",
"j.	c #4D4D96",
"k.	c #4A4A93",
"l.	c #E5E5F3",
"m.	c #C0C4DF",
"n.	c #B2B8D5",
"o.	c #88BAAA",
"p.	c #22E52D",
"q.	c #14EA1C",
"r.	c #7B8AB2",
"s.	c #7777B9",
"t.	c #6463AC",
"u.	c #5B6B9D",
"v.	c #379B63",
"w.	c #4A7586",
"x.	c #16D028",
"y.	c #13CF24",
"z.	c #3D6E77",
"A.	c #4A4993",
"B.	c #474790",
"C.	c #45448E",
"D.	c #514B90",
"E.	c #E7CAE0",
"F.	c #D8CAE3",
"G.	c #9FDAB2",
"H.	c #1FE52A",
"I.	c #7F9CB1",
"J.	c #6162A9",
"K.	c #50758E",
"L.	c #2FA555",
"M.	c #08E810",
"N.	c #309B59",
"O.	c #42717D",
"P.	c #378468",
"Q.	c #0ED81C",
"R.	c #03F106",
"S.	c #3B6279",
"T.	c #42418B",
"U.	c #3F3F89",
"V.	c #454097",
"W.	c #B687B9",
"X.	c #BBC6D9",
"Y.	c #9FCDB8",
"Z.	c #8FC4AB",
"`.	c #69C386",
" +	c #21E32C",
".+	c #06F309",
"++	c #629992",
"@+	c #6464AB",
"#+	c #6262A9",
"$+	c #4F748C",
"%+	c #06EC0C",
"&+	c #44757D",
"*+	c #4F4F98",
"=+	c #4D4C95",
"-+	c #46528C",
";+	c #09E112",
">+	c #16BE2D",
",+	c #42428B",
"'+	c #3C3C86",
")+	c #3A3983",
"!+	c #5148AE",
"~+	c #7B63A3",
"{+	c #A0A0CF",
"]+	c #9294C5",
"^+	c #19E224",
"/+	c #0DEA15",
"(+	c #6261A9",
"_+	c #556299",
":+	c #18C92D",
"<+	c #20A342",
"[+	c #06E70D",
"}+	c #3D3B86",
"|+	c #373681",
"1+	c #393786",
"2+	c #4941A0",
"3+	c #BDA3CD",
"4+	c #A9BBCA",
"5+	c #ADB9CF",
"6+	c #9898CB",
"7+	c #8C8CC5",
"8+	c #39C155",
"9+	c #606EA3",
"0+	c #6162AA",
"a+	c #58579F",
"b+	c #0EDD19",
"c+	c #1EBA3A",
"d+	c #1FA142",
"e+	c #04EB09",
"f+	c #34347E",
"g+	c #31317C",
"h+	c #3D398F",
"i+	c #CE92BF",
"j+	c #C399C7",
"k+	c #9C9BCF",
"l+	c #9FA0D1",
"m+	c #9AB2C1",
"n+	c #03F704",
"o+	c #4FD463",
"p+	c #1ED62F",
"q+	c #07EE0D",
"r+	c #6364AA",
"s+	c #5E60A5",
"t+	c #58649D",
"u+	c #565F9C",
"v+	c #2B9F52",
"w+	c #06EA0D",
"x+	c #47588A",
"y+	c #404587",
"z+	c #09DD14",
"A+	c #13BC2A",
"B+	c #3A3984",
"C+	c #34337E",
"D+	c #2E2E79",
"E+	c #2F2E7C",
"F+	c #5048AC",
"G+	c #5247AF",
"H+	c #C88CBB",
"I+	c #A88DC4",
"J+	c #9090C9",
"K+	c #9592C9",
"L+	c #4FCD66",
"M+	c #46CC5D",
"N+	c #7BA3A7",
"O+	c #8094B4",
"P+	c #66979B",
"Q+	c #2DC746",
"R+	c #3AA263",
"S+	c #487F80",
"T+	c #12D622",
"U+	c #4D5493",
"V+	c #0DDB19",
"W+	c #0CDC18",
"X+	c #317C65",
"Y+	c #3E5580",
"Z+	c #34676E",
"`+	c #10C724",
" @	c #03ED08",
".@	c #30576E",
"+@	c #2E2D79",
"@@	c #2C2B77",
"#@	c #292874",
"$@	c #3B368E",
"%@	c #C28ABA",
"&@	c #8582C1",
"*@	c #58B87B",
"=@	c #13EA1B",
"-@	c #15DC23",
";@	c #419470",
">@	c #467C7E",
",@	c #12D521",
"'@	c #445688",
")@	c #18BC31",
"!@	c #01F602",
"~@	c #10C424",
"{@	c #31317B",
"]@	c #272672",
"^@	c #2D2A7B",
"/@	c #4E45A9",
"(@	c #5248AF",
"_@	c #876CAA",
":@	c #6C82A8",
"<@	c #5E839A",
"[@	c #6271A4",
"}@	c #484790",
"|@	c #3E4985",
"1@	c #365876",
"2@	c #3A4181",
"3@	c #2B2C77",
"4@	c #24236F",
"5@	c #22216C",
"6@	c #423A9C",
"7@	c #8EA6D6",
"8@	c #90A7D7",
"9@	c #91A9D7",
"0@	c #95ABD8",
"a@	c #99AFDA",
"b@	c #9DB2DC",
"c@	c #A1B5DD",
"d@	c #A5B8DE",
"e@	c #A9BBE0",
"f@	c #ACBDE1",
"g@	c #AEC0E2",
"h@	c #B0C1E3",
"i@	c #B2C3E3",
"j@	c #B4C4E4",
"k@	c #B6C5E5",
"l@	c #B8C7E5",
"m@	c #BBC9E6",
"n@	c #5247B0",
"o@	c #5758A0",
"p@	c #1F1E6A",
"q@	c #1D1C68",
"r@	c #2D2A7F",
"s@	c #4A4A94",
"t@	c #42418C",
"u@	c #272671",
"v@	c #1A1966",
"w@	c #242075",
"x@	c #5248B1",
"y@	c #55559E",
"z@	c #21216D",
"A@	c #181764",
"B@	c #161562",
"C@	c #141360",
"D@	c #5858A0",
"E@	c #14135F",
"F@	c #5348B3",
"G@	c #6262AA",
"H@	c #2B2B77",
"I@	c #24246F",
"J@	c #11115E",
"K@	c #100F5C",
"L@	c #1D186A",
"M@	c #161561",
"N@	c #0D0D5A",
"O@	c #2A2974",
"P@	c #272571",
"Q@	c #0C0B58",
"R@	c #0A0957",
"S@	c #3E3698",
"T@	c #5348B4",
"U@	c #6161A9",
"V@	c #57579F",
"W@	c #171567",
"X@	c #4F44AC",
"Y@	c #5449B3",
"Z@	c #080755",
"`@	c #2B2681",
" #	c #5449B5",
".#	c #735FAD",
"+#	c #6760A5",
"@#	c #0F0D5C",
"##	c #41428B",
"$#	c #2C2C77",
"%#	c #070553",
"&#	c #28237D",
"*#	c #505098",
"=#	c #0B0B58",
"-#	c #131164",
";#	c #433B9F",
">#	c #131360",
",#	c #332C89",
"'#	c #27227D",
")#	c #5449B7",
"!#	c #5549B8",
"~#	c #6454A9",
"{#	c #211D76",
"]#	c #4A40A8",
"^#	c #5549BA",
"/#	c #4A4389",
"(#	c #665495",
"_#	c #3B357D",
":#	c #554AB9",
"<#	c #5B4EAD",
"[#	c #625192",
"}#	c #493E82",
"|#	c #332C77",
"1#	c #1C1A64",
"2#	c #5649B9",
"3#	c #5649BA",
"4#	c #5148AD",
"5#	c #564ABA",
"6#	c #554ABA",
"  . . . . . . . . . . . . . . . . . . . . . . . . . . . . . . . . . . . . . . . . . . . . . .   ",
". + + + @ @ @ @ # $ % % % & & & * * = = = - - - ; ; > > , ' ' ) ) ! ! ~ ~ { { ] ^ ^ ^ / ( ( _ : ",
". + + + + @ @ # $ $ % % & < & * * * = = = - - ; ; [ [ [ , , ' ) ! ! } ~ ~ | 1 2 3 ^ / 4 5 ( _ : ",
". + + + + @ @ @ $ $ 6 % % < & * * * 7 = = - - ; ; > > [ , , ' ) ) ! } } ~ { { ] ^ ^ / 4 ( ( _ : ",
". + @ + @ @ # @ # % % % & < 8 9 0 a b b c c d d e f e g h i j ! ) ! k ~ l { { ] 3 ^ / 4 5 ( _ : ",
". + @ @ @ @ @ $ $ % % % 8 m n o p q r s t t u f f v w x y z A B C D E ~ ~ | ] ] ^ / / 4 ( ( _ : ",
". @ @ @ @ @ $ $ $ % 6 9 c F G H I J K L t u f f v w x M z N O P Q R S T U | 2 3 ^ ^ / 4 5 ( _ : ",
". $ # @ # $ $ % % V W X Y K Z ` `  ...S +.f f v w x M @.#.$.%.&.*.=.-.;.>.{ ,.] ^ / / ( ( ( '.: ",
". $ # $ $ $ $ $ V ).!.~.{.].^.^.` /.(._.:.f v w x M z <.[.}.|.*.1.2.3.4.5.6.| 3 ^ ^ / 4 5 _ _ : ",
". $ $ $ $ $ % 6 ).!.~.7.7.7.8.^.` 9.0.K a.u w x M z b.c.d.e.*.=.f.g.h.i.j.k.' | ^ / / 5 ( ( '.: ",
". % $ % 6 % % 0 !.~.7.7.l.7.8.m.n.o.p.q.r.s.x M @.<.t.u.S v.w.x.;.;.y.z.A.B.C.> { ^ 4 ( ( _ '.: ",
". % % % 6 % D.X E.F.8.7.7.7.G.S S S H.I.s e M z <.c.J.K.S L.M.N.O.P.Q.R.S.C.T.U.V./ 5 ( ( _ '.: ",
". % % % < < W.!.!.^.^.8.8.8.X.Y.Z.`. +.+++w @.<.@+#+i $+S %+&+h.*+=+-+;+>+,+U.'+)+V.5 ( _ _ !+: ",
". & & & < ~+X X ` ` ^.^.^.^.^.` 9.{+]+^+/+x <.t.(+i *._+S :+h.i.j.k.B.<+[+U.}+)+|+1+2+( ( _ '.: ",
". & & & V W.X 3+/.` ` ` 4+5+9.9.{+6+7+8+S 9+@+0+i *.1.a+b+c+*+=+A.B.C.d+e+}+)+|+f+g+h+( _ _ '.: ",
". * * * ~+i+j+k+l+/.9.m+n+o+/.{+6+7+s p+q+r+(+s+t+u+2.3.v+w+x+A.B.C.y+z+A+B+|+C+g+D+E+2+F+!+G+: ",
". * * * b H+I+J+K+k+k+l+L+K M+N+O+P+Q+S R+(+i S+S T+3.h.U+V+W+X+Y+Z+`+ @.@|+C+g++@@@#@$@_ '.!+: ",
". * * D.H+%@&@&@7+J+J+K+J+*@=@S S S -@;@(+i *.>@S ,@h.i.j.'@)@!@S K ~@.@|+C+{@D+@@#@]@^@/@'.(@: ",
". = T._@H+W.t t s s &@&@&@s d :@<@[@c.J.i *.1.2.3.h.i.=+k.}@C.|@1@2@)+|+C+{@D+3@#@]@4@5@6@!+(@: ",
". = * b H+7@7@8@8@8@9@0@0@0@0@a@a@a@a@b@b@c@c@c@d@d@d@e@e@e@f@g@g@h@h@i@j@k@k@k@l@l@m@m@m@(@n@: ",
". = = W.H+c u u f f v w x y z <.@+#+i *.1.o@3.h.i.j.k.}@C.T.U.}+B+|+f+{@D+@@#@]@4@5@p@q@r@G+n@: ",
". - = %@H+d u f f v w x M z <.@+#+i *.=.2.3.h.*+=+s@}@7 t@U.'+B+|+C+{@D+@@#@u@4@5@p@q@v@w@n@n@: ",
". - - H+H+7@7@7@8@9@9@0@0@0@0@a@a@a@a@b@b@b@c@c@d@d@d@e@e@f@f@g@g@h@h@j@j@j@k@l@l@l@m@m@m@n@x@: ",
". ; - H+H+u f v w x M z b.@+(+i *.1.2.y@h.i.=+k.}@C.t@U.'+B+|+C+g+D+@@#@]@4@z@p@q@v@A@B@C@n@x@: ",
". ; ; H+H+e v w x M z b.t.(+i *.1.D@3.h.i.j.k.B.7 t@U.}+)+|+C+g+D+3@#@u@4@5@p@q@v@A@B@C@E@x@F@: ",
". ; ; H+H+7@7@8@8@9@9@9@0@0@0@a@a@a@a@b@b@c@c@c@d@d@d@e@e@f@f@g@g@h@i@i@j@k@k@l@l@l@m@m@m@x@x@: ",
". [ > %@H+g x M z <.t.G@i *.1.2.y@h.i.=+k.B.C.,+U.}+)+|+f+{@D+H@#@u@I@z@p@q@v@A@B@E@J@K@L@x@F@: ",
". [ > W.%@a M z b.@+0+i *.1.2.3.h.*+=+k.B.C.,+U.}+)+|+f+g++@H@#@]@4@5@p@q@v@A@M@E@J@K@N@w@F@F@: ",
". , , b %@7@7@7@8@9@9@0@0@0@0@a@a@a@b@b@b@b@c@c@d@d@d@e@e@f@f@g@g@h@h@i@j@k@k@k@l@l@m@m@m@F@F@: ",
". , , _@%@b <.@+J.i *.1.2.3.h.*+=+k.B.7 ,+U.'+)+|+C+g+D+@@O@P@4@z@p@q@v@A@B@C@J@K@N@Q@R@S@F@T@: ",
". , ) j %@W.h U@i *.1.V@3.h.i.j.k.}@C.,+U.}+B+|+f+g+D+@@#@u@4@5@p@q@v@A@M@E@J@K@N@Q@R@W@X@Y@T@: ",
". ) ) , b %@a i *.1.a+3.h.i.j.k.}@C.t@U.'+)+|+f+g+D+@@#@u@4@5@p@q@v@A@M@C@J@K@N@Q@R@Z@`@F@ # #: ",
". ) ) ) .#%@b +#1.2.y@h.*+j.A.B.C.T.U.'+)+|+f+g+D+H@O@]@4@z@p@q@v@A@M@C@J@K@N@Q@R@Z@@#6@T@ # #: ",
". ! ! ) ) b %@_@2.3.h.i.j.k.}@C.##U.'+)+|+C+g+D+$##@]@4@z@p@q@v@A@B@E@J@K@N@Q@R@Z@%#&#Y@T@ # #: ",
". } ! k } .#W.b +#h.*#=+A.B.C.t@U.'+)+|+C+{@D+@@O@u@4@z@p@q@v@A@B@C@J@@#N@=#R@Z@%#-#;#T@ # # #: ",
". } } k ~ } a W.a *#=+A.B.C.,+U.'+B+|+C+{@D+H@#@u@4@5@p@q@v@A@B@>#J@K@N@=#R@Z@%#%#,# #T@ # # #: ",
". ~ ~ ~ ~ { l b W.~+k.B.C.t@U.}+B+|+f+g+D+@@O@u@4@5@p@q@v@A@B@>#J@K@N@=#R@Z@%#%#'#T@ # # #)#!#: ",
". | | | | | | ~#b b 0 C.,+U.'+B+|+f+{@D+@@#@]@4@z@p@q@v@A@B@E@J@K@N@Q@R@Z@%#%#{#]#T@ # # #!#!#: ",
". { { ,.{ 1 1 ,.~#b b 0 U.}+B+|+f+g+D+@@O@u@4@5@p@q@v@A@B@E@J@K@N@Q@R@Z@%#%#{#]# # # # #)#!#!#: ",
". 3 3 ,.] ,.3 3 3 ~#c b 0 )+|+C+g+D+@@O@u@4@z@p@q@v@A@B@E@J@K@N@Q@R@Z@%#%#'#]#T@ # # #)#)#!#^#: ",
". 3 ^ 3 ^ ^ ^ ^ ^ ^ ^ a W.~+/#{@+@@@O@u@4@5@p@q@v@A@M@E@J@K@N@Q@R@Z@%#-#,#T@T@ # # # #!#!#^#^#: ",
". ^ ^ ^ ^ ^ ^ ^ / / /@/@.#a a (#_##@]@4@5@p@q@v@A@M@>#J@K@N@Q@R@Z@K@&#;#T@ #T@ # # #!#!#!#^#:#: ",
". / ^ / / / / / / 5 5 /@4 4 .#a _@(#_#5@p@q@v@A@B@C@J@K@N@Q@R@L@`@6@F@T@T@ # #)# #!#!#!#^#^#^#: ",
". 4 5 4 4 4 4 5 5 4 4 ( ( ( ( ( <#h _@~+[#}#|#5@M@C@1#4@|#,#S@X@F@T@T@T@ # #)#)#)#!#^#:#2#3#^#: ",
". ( 5 5 ( 5 ( 5 ( ( ( ( ( _ _ _ 4#'.n@!+G+'.(@'.(@n@n@x@n@F@F@F@T@ #T@ # #)#!#!#!#!#^#:#^#3#5#: ",
". ( ( ( ( ( ( ( ( ( ( _ _ _ '.'.4#!+!+(@(@(@n@n@n@x@x@F@F@F@T@T@ #T@ # #)#!#!#!#^#^#^#6#5#3#5#: ",
". _ _ _ _ _ _ _ _ '._ 4#'.4#'.G+!+G+G+(@n@n@n@x@x@x@F@F@F@F@ # # # # #!#)#!#!#!#!#:#5#5#3#5#5#: ",
"  : : : : : : : : : : : : : : : : : : : : : : : : : : : : : : : : : : : : : : : : : : : : : :   "};
