/* XPM */
static char * eclipse_icon_4_2_xpm[] = {
"48 48 368 2",
"  	c None",
". 	c #695AE8",
"+ 	c #404081",
"@ 	c #414083",
"# 	c #414184",
"$ 	c #424185",
"% 	c #424187",
"& 	c #434189",
"* 	c #44428B",
"= 	c #45428E",
"- 	c #464391",
"; 	c #474393",
"> 	c #484396",
", 	c #494498",
"' 	c #4A4599",
") 	c #4A449C",
"! 	c #4B459E",
"~ 	c #4C45A1",
"{ 	c #4D45A3",
"] 	c #4E45A4",
"^ 	c #4E46A7",
"/ 	c #4F47A8",
"( 	c #5047AB",
"_ 	c #5047AC",
": 	c #494991",
"< 	c #434288",
"[ 	c #484496",
"} 	c #4C459F",
"| 	c #4D46A2",
"1 	c #4E46A3",
"2 	c #4D45A4",
"3 	c #4E46A5",
"4 	c #5047A9",
"5 	c #4F46AA",
"6 	c #434286",
"7 	c #45448D",
"8 	c #46458A",
"9 	c #525093",
"0 	c #6D5E9E",
"a 	c #9275B2",
"b 	c #A77DB5",
"c 	c #9A83BA",
"d 	c #7F7DBD",
"e 	c #7574B8",
"f 	c #7373BA",
"g 	c #7D73B6",
"h 	c #7769B1",
"i 	c #5F5FA7",
"j 	c #554D9F",
"k 	c #4B45A0",
"l 	c #4D46A1",
"m 	c #5A5897",
"n 	c #BDA3CD",
"o 	c #CFA9CC",
"p 	c #86BB91",
"q 	c #61B583",
"r 	c #7787B4",
"s 	c #7979BF",
"t 	c #7676BC",
"u 	c #7171B7",
"v 	c #6F6FB5",
"w 	c #6D6DB4",
"x 	c #6B6AB1",
"y 	c #6868B0",
"z 	c #5A7799",
"A 	c #3DA064",
"B 	c #2AA84F",
"C 	c #2E925D",
"D 	c #425B8B",
"E 	c #D9BCD8",
"F 	c #B8B6DC",
"G 	c #77C295",
"H 	c #00F800",
"I 	c #00F900",
"J 	c #74A3A3",
"K 	c #6B6AB2",
"L 	c #36AB5B",
"M 	c #01F603",
"N 	c #0BE713",
"O 	c #17D229",
"P 	c #07EC0D",
"Q 	c #00F701",
"R 	c #27A050",
"S 	c #444287",
"T 	c #5F5D99",
"U 	c #E7CAE0",
"V 	c #D8CAE3",
"W 	c #C4C4E3",
"X 	c #ABBACC",
"Y 	c #12F215",
"Z 	c #45D956",
"` 	c #7EACA8",
" .	c #6969AF",
"..	c #439773",
"+.	c #32AA57",
"@.	c #5E5FA6",
"#.	c #5D5DA5",
"$.	c #585C9E",
"%.	c #28AE48",
"&.	c #348569",
"*.	c #4D46A4",
"=.	c #5147AE",
"-.	c #7F72A7",
";.	c #EAD7E8",
">.	c #DEDCEE",
",.	c #D1D1E9",
"'.	c #45E651",
").	c #3EE24A",
"!.	c #73BE94",
"~.	c #6666AE",
"{.	c #15D924",
"].	c #17D428",
"^.	c #5A5AA2",
"/.	c #5857A0",
"(.	c #54559C",
"_.	c #0AE413",
":.	c #17C72C",
"<.	c #4D4A9C",
"[.	c #8FDD9F",
"}.	c #0CF50E",
"|.	c #A6BCC7",
"1.	c #78C296",
"2.	c #8582C1",
"3.	c #6666AD",
"4.	c #6464AC",
"5.	c #4B8481",
"6.	c #47857D",
"7.	c #5B59A2",
"8.	c #55559D",
"9.	c #52529B",
"0.	c #0FD71D",
"a.	c #13CC26",
"b.	c #4A4A93",
"c.	c #E5E5F3",
"d.	c #CDDEDC",
"e.	c #12F515",
"f.	c #76D889",
"g.	c #7777B9",
"h.	c #6463AC",
"i.	c #6261A9",
"j.	c #475E8A",
"k.	c #01F403",
"l.	c #23A545",
"m.	c #474790",
"n.	c #45448E",
"o.	c #514B90",
"p.	c #4CEE52",
"q.	c #32EF38",
"r.	c #C3C4E2",
"s.	c #8080C1",
"t.	c #6162A9",
"u.	c #57589F",
"v.	c #505098",
"w.	c #19BE32",
"x.	c #04ED09",
"y.	c #3F5981",
"z.	c #42418B",
"A.	c #3F3F89",
"B.	c #454097",
"C.	c #B687B9",
"D.	c #8DDD9E",
"E.	c #05F706",
"F.	c #A5CCBF",
"G.	c #71A09F",
"H.	c #6464AB",
"I.	c #6262A9",
"J.	c #4D5195",
"K.	c #1DB539",
"L.	c #02F404",
"M.	c #337967",
"N.	c #42428B",
"O.	c #3C3C86",
"P.	c #3A3983",
"Q.	c #5148AE",
"R.	c #7B63A3",
"S.	c #B4C8D1",
"T.	c #10F413",
"U.	c #59E067",
"V.	c #B7C7D4",
"W.	c #ACBACE",
"X.	c #A0AFC8",
"Y.	c #69BE88",
"Z.	c #659E92",
"`.	c #6F7FAD",
" +	c #6B6EB1",
".+	c #485F89",
"++	c #12CF24",
"@+	c #05EB0A",
"#+	c #35726C",
"$+	c #3D3B86",
"%+	c #373681",
"&+	c #393786",
"*+	c #4941A0",
"=+	c #A5A5D3",
"-+	c #70D086",
";+	c #4F8687",
">+	c #6162AA",
",+	c #58579F",
"'+	c #3C7674",
")+	c #07E80E",
"!+	c #10D220",
"~+	c #3E5B7F",
"{+	c #34347E",
"]+	c #31317C",
"^+	c #3D398F",
"/+	c #CE92BF",
"(+	c #C399C7",
"_+	c #9C9BCF",
":+	c #9FA0D1",
"<+	c #ABABD6",
"[+	c #A4AECD",
"}+	c #98B3BE",
"|+	c #92AEBB",
"1+	c #8EA9B8",
"2+	c #87A2B4",
"3+	c #57B47B",
"4+	c #549885",
"5+	c #5D789B",
"6+	c #6167A6",
"7+	c #5E60A5",
"8+	c #58649D",
"9+	c #565F9C",
"0+	c #2C9856",
"a+	c #01F502",
"b+	c #1FAD3E",
"c+	c #454A8D",
"d+	c #3A3984",
"e+	c #34337E",
"f+	c #2E2E79",
"g+	c #2F2E7C",
"h+	c #5048AC",
"i+	c #5247AF",
"j+	c #C88CBB",
"k+	c #A88DC4",
"l+	c #9090C9",
"m+	c #9592C9",
"n+	c #A0A0CF",
"o+	c #9898CB",
"p+	c #8C8CC5",
"q+	c #59A487",
"r+	c #55848E",
"s+	c #487F80",
"t+	c #12D622",
"u+	c #1CBB36",
"v+	c #1CB637",
"w+	c #327967",
"x+	c #317765",
"y+	c #2F7464",
"z+	c #2D7362",
"A+	c #2B7060",
"B+	c #2C6465",
"C+	c #2E2D79",
"D+	c #2C2B77",
"E+	c #292874",
"F+	c #3B368E",
"G+	c #C28ABA",
"H+	c #529B81",
"I+	c #4F7E89",
"J+	c #467C7E",
"K+	c #12D521",
"L+	c #504F98",
"M+	c #0AD517",
"N+	c #31317B",
"O+	c #272672",
"P+	c #2D2A7B",
"Q+	c #4E45A9",
"R+	c #5248AF",
"S+	c #876CAA",
"T+	c #4D4C95",
"U+	c #484790",
"V+	c #41428B",
"W+	c #2B2C77",
"X+	c #24236F",
"Y+	c #22216C",
"Z+	c #423A9C",
"`+	c #8EA6D6",
" @	c #90A7D7",
".@	c #91A9D7",
"+@	c #95ABD8",
"@@	c #99AFDA",
"#@	c #9DB2DC",
"$@	c #A1B5DD",
"%@	c #A5B8DE",
"&@	c #A9BBE0",
"*@	c #ACBDE1",
"=@	c #AEC0E2",
"-@	c #B0C1E3",
";@	c #B2C3E3",
">@	c #B4C4E4",
",@	c #B6C5E5",
"'@	c #B8C7E5",
")@	c #BBC9E6",
"!@	c #5247B0",
"~@	c #5758A0",
"{@	c #4D4D96",
"]@	c #1F1E6A",
"^@	c #1D1C68",
"/@	c #2D2A7F",
"(@	c #4F4F98",
"_@	c #4A4A94",
":@	c #42418C",
"<@	c #272671",
"[@	c #1A1966",
"}@	c #242075",
"|@	c #5248B1",
"1@	c #55559E",
"2@	c #21216D",
"3@	c #181764",
"4@	c #161562",
"5@	c #141360",
"6@	c #5858A0",
"7@	c #14135F",
"8@	c #5348B3",
"9@	c #6262AA",
"0@	c #2B2B77",
"a@	c #24246F",
"b@	c #11115E",
"c@	c #100F5C",
"d@	c #1D186A",
"e@	c #161561",
"f@	c #0D0D5A",
"g@	c #2A2974",
"h@	c #272571",
"i@	c #0C0B58",
"j@	c #0A0957",
"k@	c #3E3698",
"l@	c #5348B4",
"m@	c #6161A9",
"n@	c #57579F",
"o@	c #171567",
"p@	c #4F44AC",
"q@	c #5449B3",
"r@	c #080755",
"s@	c #2B2681",
"t@	c #5449B5",
"u@	c #735FAD",
"v@	c #6760A5",
"w@	c #4A4993",
"x@	c #0F0D5C",
"y@	c #2C2C77",
"z@	c #070553",
"A@	c #28237D",
"B@	c #0B0B58",
"C@	c #131164",
"D@	c #433B9F",
"E@	c #131360",
"F@	c #332C89",
"G@	c #27227D",
"H@	c #5449B7",
"I@	c #5549B8",
"J@	c #6454A9",
"K@	c #211D76",
"L@	c #4A40A8",
"M@	c #5549BA",
"N@	c #4A4389",
"O@	c #665495",
"P@	c #3B357D",
"Q@	c #554AB9",
"R@	c #5B4EAD",
"S@	c #625192",
"T@	c #493E82",
"U@	c #332C77",
"V@	c #1C1A64",
"W@	c #5649B9",
"X@	c #5649BA",
"Y@	c #5148AD",
"Z@	c #564ABA",
"`@	c #554ABA",
"  . . . . . . . . . . . . . . . . . . . . . . . . . . . . . . . . . . . . . . . . . . . . . .   ",
". + + + @ @ @ @ # $ % % % & & & * * = = = - - - ; ; > > , ' ' ) ) ! ! ~ ~ { { ] ^ ^ ^ / ( ( _ : ",
". + + + + @ @ # $ $ % % & < & * * * = = = - - ; ; [ [ [ , , ' ) ! ! } ~ ~ | 1 2 3 ^ / 4 5 ( _ : ",
". + + + + @ @ @ $ $ 6 % % < & * * * 7 = = - - ; ; > > [ , , ' ) ) ! } } ~ { { ] ^ ^ / 4 ( ( _ : ",
". + @ + @ @ # @ # % % % & < 8 9 0 a b b c c d d e f e g h i j ! ) ! k ~ l { { ] 3 ^ / 4 5 ( _ : ",
". + @ @ @ @ @ $ $ % % % 8 m c n o p q r s s t f f u v w x y z A B C D ~ ~ | ] ] ^ / / 4 ( ( _ : ",
". @ @ @ @ @ $ $ $ % 6 9 c E E F G H I J s t f f u v w K y L M N O P Q R ~ | 2 3 ^ ^ / 4 5 ( _ : ",
". $ # @ # $ $ % % S T o U V W X Y Z I ` t f f u v w K  ...I +.@.#.$.%.I &.{ *.] ^ / / ( ( ( =.: ",
". $ # $ $ $ $ $ S -.E ;.>.,.W '.).!.I J s f u v w K y ~.{.].i #.^./.(._.:.<.| 3 ^ ^ / 4 5 _ _ : ",
". $ $ $ $ $ % 6 -.E ;.>.>.>.[.}.|.1.I J 2.t v w K y 3.4.5.6.#.7./.8.9.0.a.b.' | ^ / / 5 ( ( =.: ",
". % $ % 6 % % 0 E ;.>.>.c.d.e.f.F 1.I J 2.g.w K  .~.h.i.i #.^./.8.9.j.k.l.m.n.> { ^ 4 ( ( _ =.: ",
". % % % 6 % o.o U V ,.>.>.p.q.r.F 1.I J s.e K y ~.4.t.i #.^.u.8.9.v.w.x.y.n.z.A.B./ 5 ( ( _ =.: ",
". % % % < < C.E E W W ,.D.E.F.W F !.I G.d v  .~.H.I.i #.^./.8.9.J.K.L.M.n.N.A.O.P.B.5 ( _ _ Q.: ",
". & & & < R.o o F F W S.T.U.V.W.X.Y.I Z.`. +~.h.i.i #.^./.8.9..+++@+#+n.N.A.$+P.%+&+*+( ( _ =.: ",
". & & & S C.o n =+F F -+I I I I I I I I I ;+H.>+i #.^.,+8.9.'+)+!+~+n.N.A.$+P.%+{+]+^+( _ _ =.: ",
". * * * R./+(+_+:+=+<+[+}+}+|+1+2+3+I 4+5+6+i.7+8+9+/.8.9.0+a+b+c+n.z.A.$+d+%+e+]+f+g+*+h+Q.i+: ",
". * * * b j+k+l+m+_+_+:+n+n+o+m+p+q+I r+H.i.i s+I t+8.9.u+I v+w+x+y+z+A+B+%+e+]+C+D+E+F+_ =.Q.: ",
". * * o.j+G+2.2.p+l+l+m+l+l+p+2.d H+I I+i.i #.J+I K+9.L+L.I I I I I I I M+e+N+f+D+E+O+P+Q+=.R+: ",
". = z.S+j+C.s s s.s.2.2.2.s.d g.v  .4.t.i #.^./.8.9.L+T+b.U+n.V+A.$+P.%+e+N+f+W+E+O+X+Y+Z+Q.R+: ",
". = * b j+`+`+ @ @ @.@+@+@+@+@@@@@@@@@#@#@$@$@$@%@%@%@&@&@&@*@=@=@-@-@;@>@,@,@,@'@'@)@)@)@R+!@: ",
". = = C.j+c t t f f u v w x y ~.H.I.i #.^.~@8.9.L+{@b.U+n.z.A.$+d+%+{+N+f+D+E+O+X+Y+]@^@/@i+!@: ",
". - = G+j+d t f f u v w K y ~.H.I.i #.7./.8.9.(@T+_@U+7 :@A.O.d+%+e+N+f+D+E+<@X+Y+]@^@[@}@!@!@: ",
". - - j+j+`+`+`+ @.@.@+@+@+@+@@@@@@@@@#@#@#@$@$@%@%@%@&@&@*@*@=@=@-@-@>@>@>@,@'@'@'@)@)@)@!@|@: ",
". ; - j+j+t f u v w K y 3.H.i.i #.^./.1@9.L+T+b.U+n.:@A.O.d+%+e+]+f+D+E+O+X+2@]@^@[@3@4@5@!@|@: ",
". ; ; j+j+e u v w K y 3.h.i.i #.^.6@8.9.L+{@b.m.7 :@A.$+P.%+e+]+f+W+E+<@X+Y+]@^@[@3@4@5@7@|@8@: ",
". ; ; j+j+`+`+ @ @.@.@.@+@+@+@@@@@@@@@#@#@$@$@$@%@%@%@&@&@*@*@=@=@-@;@;@>@,@,@'@'@'@)@)@)@|@|@: ",
". [ > G+j+g w K y ~.h.9@i #.^./.1@9.L+T+b.m.n.N.A.$+P.%+{+N+f+0@E+<@a@2@]@^@[@3@4@7@b@c@d@|@8@: ",
". [ > C.G+a K y 3.H.>+i #.^./.8.9.(@T+b.m.n.N.A.$+P.%+{+]+C+0@E+O+X+Y+]@^@[@3@e@7@b@c@f@}@8@8@: ",
". , , b G+`+`+`+ @.@.@+@+@+@+@@@@@@@#@#@#@#@$@$@%@%@%@&@&@*@*@=@=@-@-@;@>@,@,@,@'@'@)@)@)@8@8@: ",
". , , S+G+b ~.H.t.i #.^./.8.9.(@T+b.m.7 N.A.O.P.%+e+]+f+D+g@h@X+2@]@^@[@3@4@5@b@c@f@i@j@k@8@l@: ",
". , ) j G+C.h m@i #.^.n@8.9.L+{@b.U+n.N.A.$+d+%+{+]+f+D+E+<@X+Y+]@^@[@3@e@7@b@c@f@i@j@o@p@q@l@: ",
". ) ) , b G+a i #.^.,+8.9.L+{@b.U+n.:@A.O.P.%+{+]+f+D+E+<@X+Y+]@^@[@3@e@5@b@c@f@i@j@r@s@8@t@t@: ",
". ) ) ) u@G+b v@^./.1@9.(@{@w@m.n.z.A.O.P.%+{+]+f+0@g@O+X+2@]@^@[@3@e@5@b@c@f@i@j@r@x@Z+l@t@t@: ",
". ! ! ) ) b G+S+/.8.9.L+{@b.U+n.V+A.O.P.%+e+]+f+y@E+O+X+2@]@^@[@3@4@7@b@c@f@i@j@r@z@A@q@l@t@t@: ",
". } ! k } u@C.b v@9.v.T+w@m.n.:@A.O.P.%+e+N+f+D+g@<@X+2@]@^@[@3@4@5@b@x@f@B@j@r@z@C@D@l@t@t@t@: ",
". } } k ~ } a C.a v.T+w@m.n.N.A.O.d+%+e+N+f+0@E+<@X+Y+]@^@[@3@4@E@b@c@f@B@j@r@z@z@F@t@l@t@t@t@: ",
". ~ ~ ~ ~ { l b C.R.b.m.n.:@A.$+d+%+{+]+f+D+g@<@X+Y+]@^@[@3@4@E@b@c@f@B@j@r@z@z@G@l@t@t@t@H@I@: ",
". | | | | | | J@b b 0 n.N.A.O.d+%+{+N+f+D+E+O+X+2@]@^@[@3@4@7@b@c@f@i@j@r@z@z@K@L@l@t@t@t@I@I@: ",
". { { *.{ 1 1 *.J@b b 0 A.$+d+%+{+]+f+D+g@<@X+Y+]@^@[@3@4@7@b@c@f@i@j@r@z@z@K@L@t@t@t@t@H@I@I@: ",
". 3 3 *.] *.3 3 3 J@c b 0 P.%+e+]+f+D+g@<@X+2@]@^@[@3@4@7@b@c@f@i@j@r@z@z@G@L@l@t@t@t@H@H@I@M@: ",
". 3 ^ 3 ^ ^ ^ ^ ^ ^ ^ a C.R.N@N+C+D+g@<@X+Y+]@^@[@3@e@7@b@c@f@i@j@r@z@C@F@l@l@t@t@t@t@I@I@M@M@: ",
". ^ ^ ^ ^ ^ ^ ^ / / Q+Q+u@a a O@P@E+O+X+Y+]@^@[@3@e@E@b@c@f@i@j@r@c@A@D@l@t@l@t@t@t@I@I@I@M@Q@: ",
". / ^ / / / / / / 5 5 Q+4 4 u@a S+O@P@Y+]@^@[@3@4@5@b@c@f@i@j@d@s@Z+8@l@l@t@t@H@t@I@I@I@M@M@M@: ",
". 4 5 4 4 4 4 5 5 4 4 ( ( ( ( ( R@h S+R.S@T@U@Y+e@5@V@X+U@F@k@p@8@l@l@l@t@t@H@H@H@I@M@Q@W@X@M@: ",
". ( 5 5 ( 5 ( 5 ( ( ( ( ( _ _ _ Y@=.!@Q.i+=.R+=.R+!@!@|@!@8@8@8@l@t@l@t@t@H@I@I@I@I@M@Q@M@X@Z@: ",
". ( ( ( ( ( ( ( ( ( ( _ _ _ =.=.Y@Q.Q.R+R+R+!@!@!@|@|@8@8@8@l@l@t@l@t@t@H@I@I@I@M@M@M@`@Z@X@Z@: ",
". _ _ _ _ _ _ _ _ =._ Y@=.Y@=.i+Q.i+i+R+!@!@!@|@|@|@8@8@8@8@t@t@t@t@t@I@H@I@I@I@I@Q@Z@Z@X@Z@Z@: ",
"  : : : : : : : : : : : : : : : : : : : : : : : : : : : : : : : : : : : : : : : : : : : : : :   "};
