/* XPM */
static char * eclipse_icon_3_4_xpm[] = {
"48 48 386 2",
"  	c None",
". 	c #695AE8",
"+ 	c #404081",
"@ 	c #414083",
"# 	c #414184",
"$ 	c #424185",
"% 	c #424187",
"& 	c #434189",
"* 	c #44428B",
"= 	c #45428E",
"- 	c #464391",
"; 	c #474393",
"> 	c #484396",
", 	c #494498",
"' 	c #4A4599",
") 	c #4A449C",
"! 	c #4B459E",
"~ 	c #4C45A1",
"{ 	c #4D45A3",
"] 	c #4E45A4",
"^ 	c #4E46A7",
"/ 	c #4F47A8",
"( 	c #5047AB",
"_ 	c #5047AC",
": 	c #494991",
"< 	c #434288",
"[ 	c #484496",
"} 	c #4C459F",
"| 	c #4D46A2",
"1 	c #4E46A3",
"2 	c #4D45A4",
"3 	c #4E46A5",
"4 	c #5047A9",
"5 	c #4F46AA",
"6 	c #434286",
"7 	c #45448D",
"8 	c #46458A",
"9 	c #525093",
"0 	c #6D5E9E",
"a 	c #9275B2",
"b 	c #A77DB5",
"c 	c #9A83BA",
"d 	c #7F7DBD",
"e 	c #7574B8",
"f 	c #7373BA",
"g 	c #7D73B6",
"h 	c #7769B1",
"i 	c #5F5FA7",
"j 	c #554D9F",
"k 	c #4B45A0",
"l 	c #4D46A1",
"m 	c #5A5897",
"n 	c #898FA5",
"o 	c #6FC679",
"p 	c #65D164",
"q 	c #69C872",
"r 	c #7CA2A7",
"s 	c #8080C1",
"t 	c #7979BF",
"u 	c #7676BC",
"v 	c #7171B7",
"w 	c #6F6FB5",
"x 	c #6D6DB4",
"y 	c #6B6AB1",
"z 	c #6868B0",
"A 	c #6666AE",
"B 	c #6863AA",
"C 	c #5754A3",
"D 	c #387C71",
"E 	c #318368",
"F 	c #475096",
"G 	c #68DB68",
"H 	c #02F802",
"I 	c #20ED26",
"J 	c #33E140",
"K 	c #16EC1D",
"L 	c #00F800",
"M 	c #40C95A",
"N 	c #6B6AB2",
"O 	c #6666AD",
"P 	c #6464AB",
"Q 	c #6261A9",
"R 	c #428D74",
"S 	c #00F900",
"T 	c #406A81",
"U 	c #444287",
"V 	c #5F5D99",
"W 	c #CFA9CC",
"X 	c #87DD83",
"Y 	c #7ED692",
"Z 	c #B8B6DC",
"` 	c #AAABD5",
" .	c #4ECD67",
"..	c #539C85",
"+.	c #6969AF",
"@.	c #6464AC",
"#.	c #6161A9",
"$.	c #58699B",
"%.	c #09E910",
"&.	c #24B841",
"*.	c #447181",
"=.	c #4F4AA0",
"-.	c #4D46A4",
";.	c #5147AE",
">.	c #7F72A7",
",.	c #D9BCD8",
"'.	c #EAD7E8",
").	c #98E5A3",
"!.	c #71E37E",
"~.	c #C4C4E3",
"{.	c #A5A5D3",
"].	c #989DCA",
"^.	c #01F702",
"/.	c #36BF56",
"(.	c #6463AC",
"_.	c #21C13A",
":.	c #1EC336",
"<.	c #3D8770",
"[.	c #42717D",
"}.	c #504F98",
"|.	c #4D4A9C",
"1.	c #DEDCEE",
"2.	c #D1D1E9",
"3.	c #ABABD6",
"4.	c #8CAAB8",
"5.	c #44BB63",
"6.	c #6262A9",
"7.	c #3F8D71",
"8.	c #05EE0A",
"9.	c #4F6690",
"0.	c #3B856E",
"a.	c #406F7B",
"b.	c #4D4D96",
"c.	c #4A4A93",
"d.	c #E5E5F3",
"e.	c #C0C4DF",
"f.	c #B2B8D5",
"g.	c #88BAAA",
"h.	c #22E52D",
"i.	c #14EA1C",
"j.	c #7B8AB2",
"k.	c #7777B9",
"l.	c #566898",
"m.	c #08EA0E",
"n.	c #359760",
"o.	c #55559D",
"p.	c #39836C",
"q.	c #3E6C78",
"r.	c #4A4993",
"s.	c #474790",
"t.	c #45448E",
"u.	c #514B90",
"v.	c #E7CAE0",
"w.	c #D8CAE3",
"x.	c #9FDAB2",
"y.	c #1FE52A",
"z.	c #7F9CB1",
"A.	c #6162A9",
"B.	c #5D5DA5",
"C.	c #1FC237",
"D.	c #15D126",
"E.	c #54559C",
"F.	c #52529B",
"G.	c #38826A",
"H.	c #3C6A77",
"I.	c #42418B",
"J.	c #3F3F89",
"K.	c #454097",
"L.	c #B687B9",
"M.	c #BBC6D9",
"N.	c #9FCDB8",
"O.	c #8FC4AB",
"P.	c #69C386",
"Q.	c #21E32C",
"R.	c #06F309",
"S.	c #629992",
"T.	c #3D8D6D",
"U.	c #02F404",
"V.	c #476E84",
"W.	c #4F4F98",
"X.	c #367F68",
"Y.	c #3A6874",
"Z.	c #42428B",
"`.	c #3C3C86",
" +	c #3A3983",
".+	c #5148AE",
"++	c #7B63A3",
"@+	c #A0A0CF",
"#+	c #9294C5",
"$+	c #19E224",
"%+	c #0DEA15",
"&+	c #526695",
"*+	c #07EB0D",
"=+	c #26AE47",
"-+	c #4C5C91",
";+	c #4A598E",
">+	c #48578C",
",+	c #308560",
"'+	c #346F6C",
")+	c #3D4D82",
"!+	c #3E4187",
"~+	c #3D3B86",
"{+	c #373681",
"]+	c #393786",
"^+	c #4941A0",
"/+	c #BDA3CD",
"(+	c #A9BBCA",
"_+	c #ADB9CF",
":+	c #9898CB",
"<+	c #8C8CC5",
"[+	c #39C155",
"}+	c #606EA3",
"|+	c #6162AA",
"1+	c #5A5AA2",
"2+	c #359561",
"3+	c #2F6468",
"4+	c #34347E",
"5+	c #31317C",
"6+	c #3D398F",
"7+	c #CE92BF",
"8+	c #C399C7",
"9+	c #9C9BCF",
"0+	c #9FA0D1",
"a+	c #9AB2C1",
"b+	c #03F704",
"c+	c #4FD463",
"d+	c #1ED62F",
"e+	c #07EE0D",
"f+	c #6364AA",
"g+	c #5E60A5",
"h+	c #58649D",
"i+	c #565F9C",
"j+	c #5857A0",
"k+	c #515B96",
"l+	c #486489",
"m+	c #466187",
"n+	c #445E84",
"o+	c #415C82",
"p+	c #3F5A80",
"q+	c #2B8759",
"r+	c #2D7263",
"s+	c #364F77",
"t+	c #383D80",
"u+	c #34337E",
"v+	c #2E2E79",
"w+	c #2F2E7C",
"x+	c #5048AC",
"y+	c #5247AF",
"z+	c #C88CBB",
"A+	c #A88DC4",
"B+	c #9090C9",
"C+	c #9592C9",
"D+	c #4FCD66",
"E+	c #46CC5D",
"F+	c #7BA3A7",
"G+	c #8094B4",
"H+	c #66979B",
"I+	c #2DC746",
"J+	c #3AA263",
"K+	c #487F80",
"L+	c #12D622",
"M+	c #4D4C95",
"N+	c #2E7762",
"O+	c #315E6C",
"P+	c #2E2D79",
"Q+	c #2C2B77",
"R+	c #292874",
"S+	c #3B368E",
"T+	c #C28ABA",
"U+	c #8582C1",
"V+	c #58B87B",
"W+	c #13EA1B",
"X+	c #15DC23",
"Y+	c #419470",
"Z+	c #467C7E",
"`+	c #12D521",
" @	c #2C7660",
".@	c #2F5D6B",
"+@	c #31317B",
"@@	c #272672",
"#@	c #2D2A7B",
"$@	c #4E45A9",
"%@	c #5248AF",
"&@	c #876CAA",
"*@	c #6C82A8",
"=@	c #5E839A",
"-@	c #6271A4",
";@	c #484790",
">@	c #41428B",
",@	c #2B2C77",
"'@	c #24236F",
")@	c #22216C",
"!@	c #423A9C",
"~@	c #8EA6D6",
"{@	c #90A7D7",
"]@	c #91A9D7",
"^@	c #95ABD8",
"/@	c #99AFDA",
"(@	c #9DB2DC",
"_@	c #A1B5DD",
":@	c #A5B8DE",
"<@	c #A9BBE0",
"[@	c #ACBDE1",
"}@	c #AEC0E2",
"|@	c #B0C1E3",
"1@	c #B2C3E3",
"2@	c #B4C4E4",
"3@	c #B6C5E5",
"4@	c #B8C7E5",
"5@	c #BBC9E6",
"6@	c #5247B0",
"7@	c #5758A0",
"8@	c #3A3984",
"9@	c #1F1E6A",
"0@	c #1D1C68",
"a@	c #2D2A7F",
"b@	c #5B59A2",
"c@	c #4A4A94",
"d@	c #42418C",
"e@	c #272671",
"f@	c #1A1966",
"g@	c #242075",
"h@	c #5248B1",
"i@	c #55559E",
"j@	c #21216D",
"k@	c #181764",
"l@	c #161562",
"m@	c #141360",
"n@	c #5858A0",
"o@	c #14135F",
"p@	c #5348B3",
"q@	c #6262AA",
"r@	c #2B2B77",
"s@	c #24246F",
"t@	c #11115E",
"u@	c #100F5C",
"v@	c #1D186A",
"w@	c #161561",
"x@	c #0D0D5A",
"y@	c #2A2974",
"z@	c #272571",
"A@	c #0C0B58",
"B@	c #0A0957",
"C@	c #3E3698",
"D@	c #5348B4",
"E@	c #57579F",
"F@	c #171567",
"G@	c #4F44AC",
"H@	c #5449B3",
"I@	c #58579F",
"J@	c #080755",
"K@	c #2B2681",
"L@	c #5449B5",
"M@	c #735FAD",
"N@	c #6760A5",
"O@	c #0F0D5C",
"P@	c #2C2C77",
"Q@	c #070553",
"R@	c #28237D",
"S@	c #505098",
"T@	c #0B0B58",
"U@	c #131164",
"V@	c #433B9F",
"W@	c #131360",
"X@	c #332C89",
"Y@	c #27227D",
"Z@	c #5449B7",
"`@	c #5549B8",
" #	c #6454A9",
".#	c #211D76",
"+#	c #4A40A8",
"@#	c #5549BA",
"##	c #4A4389",
"$#	c #665495",
"%#	c #3B357D",
"&#	c #554AB9",
"*#	c #5B4EAD",
"=#	c #625192",
"-#	c #493E82",
";#	c #332C77",
">#	c #1C1A64",
",#	c #5649B9",
"'#	c #5649BA",
")#	c #5148AD",
"!#	c #564ABA",
"~#	c #554ABA",
"  . . . . . . . . . . . . . . . . . . . . . . . . . . . . . . . . . . . . . . . . . . . . . .   ",
". + + + @ @ @ @ # $ % % % & & & * * = = = - - - ; ; > > , ' ' ) ) ! ! ~ ~ { { ] ^ ^ ^ / ( ( _ : ",
". + + + + @ @ # $ $ % % & < & * * * = = = - - ; ; [ [ [ , , ' ) ! ! } ~ ~ | 1 2 3 ^ / 4 5 ( _ : ",
". + + + + @ @ @ $ $ 6 % % < & * * * 7 = = - - ; ; > > [ , , ' ) ) ! } } ~ { { ] ^ ^ / 4 ( ( _ : ",
". + @ + @ @ # @ # % % % & < 8 9 0 a b b c c d d e f e g h i j ! ) ! k ~ l { { ] 3 ^ / 4 5 ( _ : ",
". + @ @ @ @ @ $ $ % % % 8 m n o p q r s t t u f f v w x y z A B C D E F ~ | ] ] ^ / / 4 ( ( _ : ",
". @ @ @ @ @ $ $ $ % 6 9 c G H I J K L M t u f f v w x N z O P Q R L S T ~ | 2 3 ^ ^ / 4 5 ( _ : ",
". $ # @ # $ $ % % U V W X L Y Z Z `  .S ..f f v w x N +.A @.#.$.%.&.S *.=.{ -.] ^ / / ( ( ( ;.: ",
". $ # $ $ $ $ $ U >.,.'.).!.~.~.Z {.].^./.f v w x N z A (.Q i _.:.<.S [.}.|.| 3 ^ ^ / 4 5 _ _ : ",
". $ $ $ $ $ % 6 >.,.'.1.1.1.2.~.Z 3.4.L 5.u w x N z O @.6.i 7.8.9.0.S a.b.c.' | ^ / / 5 ( ( ;.: ",
". % $ % 6 % % 0 ,.'.1.1.d.1.2.e.f.g.h.i.j.k.x N +.A (.Q i l.m.n.o.p.S q.r.s.t.> { ^ 4 ( ( _ ;.: ",
". % % % 6 % u.W v.w.2.1.1.1.x.S S S y.z.s e N z A @.A.i B.C.D.E.F.G.S H.s.t.I.J.K./ 5 ( ( _ ;.: ",
". % % % < < L.,.,.~.~.2.2.2.M.N.O.P.Q.R.S.w +.A P 6.i B.T.U.V.F.W.X.S Y.t.Z.J.`. +K.5 ( _ _ .+: ",
". & & & < ++W W Z Z ~.~.~.~.~.Z 3.@+#+$+%+x A (.Q i B.&+*+=+-+;+>+,+S '+)+!+~+ +{+]+^+( ( _ ;.: ",
". & & & U L.W /+{.Z Z Z (+_+3.3.@+:+<+[+S }+P |+i B.1+2+S S S S S S S S S 3+ +{+4+5+6+( _ _ ;.: ",
". * * * ++7+8+9+0+{.3.a+b+c+{.@+:+<+s d+e+f+Q g+h+i+j+k+l+m+n+o+p+q+S r+s+t+{+u+5+v+w+^+x+.+y+: ",
". * * * b z+A+B+C+9+9+0+D+L E+F+G+H+I+S J+Q i K+S L+o.F.}.M+c.s.t.N+S O+ +{+u+5+P+Q+R+S+_ ;..+: ",
". * * u.z+T+U+U+<+B+B+C+B+V+W+S S S X+Y+Q i B.Z+S `+F.}.b.r.s.7 I. @S .@{+u++@v+Q+R+@@#@$@;.%@: ",
". = I.&@z+L.t t s s U+U+U+s d *@=@-@@.A.i B.1+j+o.F.}.M+c.;@t.>@J.~+ +{+u++@v+,@R+@@'@)@!@.+%@: ",
". = * b z+~@~@{@{@{@]@^@^@^@^@/@/@/@/@(@(@_@_@_@:@:@:@<@<@<@[@}@}@|@|@1@2@3@3@3@4@4@5@5@5@%@6@: ",
". = = L.z+c u u f f v w x y z A P 6.i B.1+7@o.F.}.b.c.;@t.I.J.~+8@{+4++@v+Q+R+@@'@)@9@0@a@y+6@: ",
". - = T+z+d u f f v w x N z A P 6.i B.b@j+o.F.W.M+c@;@7 d@J.`.8@{+u++@v+Q+R+e@'@)@9@0@f@g@6@6@: ",
". - - z+z+~@~@~@{@]@]@^@^@^@^@/@/@/@/@(@(@(@_@_@:@:@:@<@<@[@[@}@}@|@|@2@2@2@3@4@4@4@5@5@5@6@h@: ",
". ; - z+z+u f v w x N z O P Q i B.1+j+i@F.}.M+c.;@t.d@J.`.8@{+u+5+v+Q+R+@@'@j@9@0@f@k@l@m@6@h@: ",
". ; ; z+z+e v w x N z O (.Q i B.1+n@o.F.}.b.c.s.7 d@J.~+ +{+u+5+v+,@R+e@'@)@9@0@f@k@l@m@o@h@p@: ",
". ; ; z+z+~@~@{@{@]@]@]@^@^@^@/@/@/@/@(@(@_@_@_@:@:@:@<@<@[@[@}@}@|@1@1@2@3@3@4@4@4@5@5@5@h@h@: ",
". [ > T+z+g x N z A (.q@i B.1+j+i@F.}.M+c.s.t.Z.J.~+ +{+4++@v+r@R+e@s@j@9@0@f@k@l@o@t@u@v@h@p@: ",
". [ > L.T+a N z O P |+i B.1+j+o.F.W.M+c.s.t.Z.J.~+ +{+4+5+P+r@R+@@'@)@9@0@f@k@w@o@t@u@x@g@p@p@: ",
". , , b T+~@~@~@{@]@]@^@^@^@^@/@/@/@(@(@(@(@_@_@:@:@:@<@<@[@[@}@}@|@|@1@2@3@3@3@4@4@5@5@5@p@p@: ",
". , , &@T+b A P A.i B.1+j+o.F.W.M+c.s.7 Z.J.`. +{+u+5+v+Q+y@z@'@j@9@0@f@k@l@m@t@u@x@A@B@C@p@D@: ",
". , ) j T+L.h #.i B.1+E@o.F.}.b.c.;@t.Z.J.~+8@{+4+5+v+Q+R+e@'@)@9@0@f@k@w@o@t@u@x@A@B@F@G@H@D@: ",
". ) ) , b T+a i B.1+I@o.F.}.b.c.;@t.d@J.`. +{+4+5+v+Q+R+e@'@)@9@0@f@k@w@m@t@u@x@A@B@J@K@p@L@L@: ",
". ) ) ) M@T+b N@1+j+i@F.W.b.r.s.t.I.J.`. +{+4+5+v+r@y@@@'@j@9@0@f@k@w@m@t@u@x@A@B@J@O@!@D@L@L@: ",
". ! ! ) ) b T+&@j+o.F.}.b.c.;@t.>@J.`. +{+u+5+v+P@R+@@'@j@9@0@f@k@l@o@t@u@x@A@B@J@Q@R@H@D@L@L@: ",
". } ! k } M@L.b N@F.S@M+r.s.t.d@J.`. +{+u++@v+Q+y@e@'@j@9@0@f@k@l@m@t@O@x@T@B@J@Q@U@V@D@L@L@L@: ",
". } } k ~ } a L.a S@M+r.s.t.Z.J.`.8@{+u++@v+r@R+e@'@)@9@0@f@k@l@W@t@u@x@T@B@J@Q@Q@X@L@D@L@L@L@: ",
". ~ ~ ~ ~ { l b L.++c.s.t.d@J.~+8@{+4+5+v+Q+y@e@'@)@9@0@f@k@l@W@t@u@x@T@B@J@Q@Q@Y@D@L@L@L@Z@`@: ",
". | | | | | |  #b b 0 t.Z.J.`.8@{+4++@v+Q+R+@@'@j@9@0@f@k@l@o@t@u@x@A@B@J@Q@Q@.#+#D@L@L@L@`@`@: ",
". { { -.{ 1 1 -. #b b 0 J.~+8@{+4+5+v+Q+y@e@'@)@9@0@f@k@l@o@t@u@x@A@B@J@Q@Q@.#+#L@L@L@L@Z@`@`@: ",
". 3 3 -.] -.3 3 3  #c b 0  +{+u+5+v+Q+y@e@'@j@9@0@f@k@l@o@t@u@x@A@B@J@Q@Q@Y@+#D@L@L@L@Z@Z@`@@#: ",
". 3 ^ 3 ^ ^ ^ ^ ^ ^ ^ a L.++##+@P+Q+y@e@'@)@9@0@f@k@w@o@t@u@x@A@B@J@Q@U@X@D@D@L@L@L@L@`@`@@#@#: ",
". ^ ^ ^ ^ ^ ^ ^ / / $@$@M@a a $#%#R+@@'@)@9@0@f@k@w@W@t@u@x@A@B@J@u@R@V@D@L@D@L@L@L@`@`@`@@#&#: ",
". / ^ / / / / / / 5 5 $@4 4 M@a &@$#%#)@9@0@f@k@l@m@t@u@x@A@B@v@K@!@p@D@D@L@L@Z@L@`@`@`@@#@#@#: ",
". 4 5 4 4 4 4 5 5 4 4 ( ( ( ( ( *#h &@++=#-#;#)@w@m@>#'@;#X@C@G@p@D@D@D@L@L@Z@Z@Z@`@@#&#,#'#@#: ",
". ( 5 5 ( 5 ( 5 ( ( ( ( ( _ _ _ )#;.6@.+y+;.%@;.%@6@6@h@6@p@p@p@D@L@D@L@L@Z@`@`@`@`@@#&#@#'#!#: ",
". ( ( ( ( ( ( ( ( ( ( _ _ _ ;.;.)#.+.+%@%@%@6@6@6@h@h@p@p@p@D@D@L@D@L@L@Z@`@`@`@@#@#@#~#!#'#!#: ",
". _ _ _ _ _ _ _ _ ;._ )#;.)#;.y+.+y+y+%@6@6@6@h@h@h@p@p@p@p@L@L@L@L@L@`@Z@`@`@`@`@&#!#!#'#!#!#: ",
"  : : : : : : : : : : : : : : : : : : : : : : : : : : : : : : : : : : : : : : : : : : : : : :   "};
