/* XPM */
static char * eclipse_icon_3_5_xpm[] = {
"48 48 394 2",
"  	c None",
". 	c #695AE8",
"+ 	c #404081",
"@ 	c #414083",
"# 	c #414184",
"$ 	c #424185",
"% 	c #424187",
"& 	c #434189",
"* 	c #44428B",
"= 	c #45428E",
"- 	c #464391",
"; 	c #474393",
"> 	c #484396",
", 	c #494498",
"' 	c #4A4599",
") 	c #4A449C",
"! 	c #4B459E",
"~ 	c #4C45A1",
"{ 	c #4D45A3",
"] 	c #4E45A4",
"^ 	c #4E46A7",
"/ 	c #4F47A8",
"( 	c #5047AB",
"_ 	c #5047AC",
": 	c #494991",
"< 	c #434288",
"[ 	c #484496",
"} 	c #4C459F",
"| 	c #4D46A2",
"1 	c #4E46A3",
"2 	c #4D45A4",
"3 	c #4E46A5",
"4 	c #5047A9",
"5 	c #4F46AA",
"6 	c #434286",
"7 	c #45448D",
"8 	c #46458A",
"9 	c #525093",
"0 	c #6D5E9E",
"a 	c #9275B2",
"b 	c #A77DB5",
"c 	c #9A83BA",
"d 	c #7F7DBD",
"e 	c #7574B8",
"f 	c #7373BA",
"g 	c #7D73B6",
"h 	c #7769B1",
"i 	c #5F5FA7",
"j 	c #554D9F",
"k 	c #4B45A0",
"l 	c #4D46A1",
"m 	c #5A5897",
"n 	c #898FA5",
"o 	c #6FC679",
"p 	c #65D164",
"q 	c #69C872",
"r 	c #7CA2A7",
"s 	c #8080C1",
"t 	c #7979BF",
"u 	c #7676BC",
"v 	c #7171B7",
"w 	c #6F6FB5",
"x 	c #6D6DB4",
"y 	c #6373A5",
"z 	c #449A73",
"A 	c #429871",
"B 	c #44966F",
"C 	c #388C6A",
"D 	c #338668",
"E 	c #318368",
"F 	c #318369",
"G 	c #494B9B",
"H 	c #68DB68",
"I 	c #02F802",
"J 	c #20ED26",
"K 	c #33E140",
"L 	c #16EC1D",
"M 	c #00F800",
"N 	c #40C95A",
"O 	c #6B6AB2",
"P 	c #4E8B85",
"Q 	c #00F900",
"R 	c #01F702",
"S 	c #01F701",
"T 	c #00F701",
"U 	c #00F601",
"V 	c #484C9A",
"W 	c #444287",
"X 	c #5F5D99",
"Y 	c #CFA9CC",
"Z 	c #87DD83",
"` 	c #7ED692",
" .	c #B8B6DC",
"..	c #AAABD5",
"+.	c #4ECD67",
"@.	c #539C85",
"#.	c #6969AF",
"$.	c #479279",
"%.	c #09EA10",
"&.	c #6161A9",
"*.	c #5D5DA5",
"=.	c #5B59A2",
"-.	c #58579F",
";.	c #5452A0",
">.	c #4F4AA0",
",.	c #4D46A4",
"'.	c #5147AE",
").	c #7F72A7",
"!.	c #D9BCD8",
"~.	c #EAD7E8",
"{.	c #98E5A3",
"].	c #71E37E",
"^.	c #C4C4E3",
"/.	c #A5A5D3",
"(.	c #989DCA",
"_.	c #36BF56",
":.	c #6868B0",
"<.	c #6666AE",
"[.	c #3F996D",
"}.	c #10DF1B",
"|.	c #5A5AA2",
"1.	c #5857A0",
"2.	c #55559D",
"3.	c #52529B",
"4.	c #504F98",
"5.	c #4D4A9C",
"6.	c #DEDCEE",
"7.	c #D1D1E9",
"8.	c #ABABD6",
"9.	c #8CAAB8",
"0.	c #44BB63",
"a.	c #6666AD",
"b.	c #6464AC",
"c.	c #38A260",
"d.	c #15D526",
"e.	c #4B7386",
"f.	c #398E68",
"g.	c #3D8271",
"h.	c #4E5894",
"i.	c #4D4D96",
"j.	c #4A4A93",
"k.	c #E5E5F3",
"l.	c #C0C4DF",
"m.	c #B2B8D5",
"n.	c #88BAAA",
"o.	c #22E52D",
"p.	c #14EA1C",
"q.	c #7B8AB2",
"r.	c #7777B9",
"s.	c #6463AC",
"t.	c #6261A9",
"u.	c #30A955",
"v.	c #16D328",
"w.	c #1CC534",
"x.	c #01F503",
"y.	c #09E611",
"z.	c #05EC0B",
"A.	c #348365",
"B.	c #4A4993",
"C.	c #474790",
"D.	c #45448E",
"E.	c #514B90",
"F.	c #E7CAE0",
"G.	c #D8CAE3",
"H.	c #9FDAB2",
"I.	c #1FE52A",
"J.	c #7F9CB1",
"K.	c #6162A9",
"L.	c #29B24A",
"M.	c #22B83F",
"N.	c #4F5F93",
"O.	c #4A5A8E",
"P.	c #1DB63A",
"Q.	c #36706E",
"R.	c #42418B",
"S.	c #3F3F89",
"T.	c #454097",
"U.	c #B687B9",
"V.	c #BBC6D9",
"W.	c #9FCDB8",
"X.	c #8FC4AB",
"Y.	c #69C386",
"Z.	c #21E32C",
"`.	c #06F309",
" +	c #629992",
".+	c #6464AB",
"++	c #6262A9",
"@+	c #487981",
"#+	c #34995E",
"$+	c #4F4F98",
"%+	c #4D4C95",
"&+	c #494B91",
"*+	c #0BDC17",
"=+	c #13C528",
"-+	c #42428B",
";+	c #3C3C86",
">+	c #3A3983",
",+	c #5148AE",
"'+	c #7B63A3",
")+	c #A0A0CF",
"!+	c #9294C5",
"~+	c #19E224",
"{+	c #0DEA15",
"]+	c #1BAF39",
"^+	c #05E80C",
"/+	c #3D3B86",
"(+	c #373681",
"_+	c #393786",
":+	c #4941A0",
"<+	c #BDA3CD",
"[+	c #A9BBCA",
"}+	c #ADB9CF",
"|+	c #9898CB",
"1+	c #8C8CC5",
"2+	c #39C155",
"3+	c #606EA3",
"4+	c #6162AA",
"5+	c #535899",
"6+	c #17B930",
"7+	c #08E012",
"8+	c #34347E",
"9+	c #31317C",
"0+	c #3D398F",
"a+	c #CE92BF",
"b+	c #C399C7",
"c+	c #9C9BCF",
"d+	c #9FA0D1",
"e+	c #9AB2C1",
"f+	c #03F704",
"g+	c #4FD463",
"h+	c #1ED62F",
"i+	c #07EE0D",
"j+	c #6364AA",
"k+	c #5E60A5",
"l+	c #58649D",
"m+	c #565F9C",
"n+	c #08E710",
"o+	c #22AF42",
"p+	c #3D4D81",
"q+	c #04EC09",
"r+	c #18AD35",
"s+	c #3A3984",
"t+	c #34337E",
"u+	c #2E2E79",
"v+	c #2F2E7C",
"w+	c #5048AC",
"x+	c #5247AF",
"y+	c #C88CBB",
"z+	c #A88DC4",
"A+	c #9090C9",
"B+	c #9592C9",
"C+	c #4FCD66",
"D+	c #46CC5D",
"E+	c #7BA3A7",
"F+	c #8094B4",
"G+	c #66979B",
"H+	c #2DC746",
"I+	c #3AA263",
"J+	c #487F80",
"K+	c #12D622",
"L+	c #2B9B53",
"M+	c #21A942",
"N+	c #3C607B",
"O+	c #404E85",
"P+	c #316F68",
"Q+	c #0CD31B",
"R+	c #06E50D",
"S+	c #344B76",
"T+	c #2E2D79",
"U+	c #2C2B77",
"V+	c #292874",
"W+	c #3B368E",
"X+	c #C28ABA",
"Y+	c #8582C1",
"Z+	c #58B87B",
"`+	c #13EA1B",
" @	c #15DC23",
".@	c #419470",
"+@	c #467C7E",
"@@	c #12D521",
"#@	c #2D8B5B",
"$@	c #08E212",
"%@	c #01F403",
"&@	c #16B132",
"*@	c #334E74",
"=@	c #31317B",
"-@	c #272672",
";@	c #2D2A7B",
">@	c #4E45A9",
",@	c #5248AF",
"'@	c #876CAA",
")@	c #6C82A8",
"!@	c #5E839A",
"~@	c #6271A4",
"{@	c #484790",
"]@	c #39567B",
"^@	c #375677",
"/@	c #3C3D84",
"(@	c #2B2C77",
"_@	c #24236F",
":@	c #22216C",
"<@	c #423A9C",
"[@	c #8EA6D6",
"}@	c #90A7D7",
"|@	c #91A9D7",
"1@	c #95ABD8",
"2@	c #99AFDA",
"3@	c #9DB2DC",
"4@	c #A1B5DD",
"5@	c #A5B8DE",
"6@	c #A9BBE0",
"7@	c #ACBDE1",
"8@	c #AEC0E2",
"9@	c #B0C1E3",
"0@	c #B2C3E3",
"a@	c #B4C4E4",
"b@	c #B6C5E5",
"c@	c #B8C7E5",
"d@	c #BBC9E6",
"e@	c #5247B0",
"f@	c #6B6AB1",
"g@	c #5758A0",
"h@	c #1F1E6A",
"i@	c #1D1C68",
"j@	c #2D2A7F",
"k@	c #4A4A94",
"l@	c #42418C",
"m@	c #272671",
"n@	c #1A1966",
"o@	c #242075",
"p@	c #5248B1",
"q@	c #55559E",
"r@	c #21216D",
"s@	c #181764",
"t@	c #161562",
"u@	c #141360",
"v@	c #5858A0",
"w@	c #14135F",
"x@	c #5348B3",
"y@	c #6262AA",
"z@	c #2B2B77",
"A@	c #24246F",
"B@	c #11115E",
"C@	c #100F5C",
"D@	c #1D186A",
"E@	c #161561",
"F@	c #0D0D5A",
"G@	c #2A2974",
"H@	c #272571",
"I@	c #0C0B58",
"J@	c #0A0957",
"K@	c #3E3698",
"L@	c #5348B4",
"M@	c #57579F",
"N@	c #171567",
"O@	c #4F44AC",
"P@	c #5449B3",
"Q@	c #080755",
"R@	c #2B2681",
"S@	c #5449B5",
"T@	c #735FAD",
"U@	c #6760A5",
"V@	c #0F0D5C",
"W@	c #41428B",
"X@	c #2C2C77",
"Y@	c #070553",
"Z@	c #28237D",
"`@	c #505098",
" #	c #0B0B58",
".#	c #131164",
"+#	c #433B9F",
"@#	c #131360",
"##	c #332C89",
"$#	c #27227D",
"%#	c #5449B7",
"&#	c #5549B8",
"*#	c #6454A9",
"=#	c #211D76",
"-#	c #4A40A8",
";#	c #5549BA",
">#	c #4A4389",
",#	c #665495",
"'#	c #3B357D",
")#	c #554AB9",
"!#	c #5B4EAD",
"~#	c #625192",
"{#	c #493E82",
"]#	c #332C77",
"^#	c #1C1A64",
"/#	c #5649B9",
"(#	c #5649BA",
"_#	c #5148AD",
":#	c #564ABA",
"<#	c #554ABA",
"  . . . . . . . . . . . . . . . . . . . . . . . . . . . . . . . . . . . . . . . . . . . . . .   ",
". + + + @ @ @ @ # $ % % % & & & * * = = = - - - ; ; > > , ' ' ) ) ! ! ~ ~ { { ] ^ ^ ^ / ( ( _ : ",
". + + + + @ @ # $ $ % % & < & * * * = = = - - ; ; [ [ [ , , ' ) ! ! } ~ ~ | 1 2 3 ^ / 4 5 ( _ : ",
". + + + + @ @ @ $ $ 6 % % < & * * * 7 = = - - ; ; > > [ , , ' ) ) ! } } ~ { { ] ^ ^ / 4 ( ( _ : ",
". + @ + @ @ # @ # % % % & < 8 9 0 a b b c c d d e f e g h i j ! ) ! k ~ l { { ] 3 ^ / 4 5 ( _ : ",
". + @ @ @ @ @ $ $ % % % 8 m n o p q r s t t u f f v w x y z A B C D E F G | ] ] ^ / / 4 ( ( _ : ",
". @ @ @ @ @ $ $ $ % 6 9 c H I J K L M N t u f f v w x O P Q R S S S T U V | 2 3 ^ ^ / 4 5 ( _ : ",
". $ # @ # $ $ % % W X Y Z M `  . ...+.Q @.f f v w x O #.$.%.&.i *.=.-.;.>.{ ,.] ^ / / ( ( ( '.: ",
". $ # $ $ $ $ $ W ).!.~.{.].^.^. ./.(.R _.f v w x O :.<.[.}.i *.|.1.2.3.4.5.| 3 ^ ^ / 4 5 _ _ : ",
". $ $ $ $ $ % 6 ).!.~.6.6.6.7.^. .8.9.M 0.u w x O :.a.b.c.d.*.e.f.g.h.4.i.j.' | ^ / / 5 ( ( '.: ",
". % $ % 6 % % 0 !.~.6.6.k.6.7.l.m.n.o.p.q.r.x O #.<.s.t.u.v.w.x.y.x.z.A.B.C.D.> { ^ 4 ( ( _ '.: ",
". % % % 6 % E.Y F.G.7.6.6.6.H.Q Q Q I.J.s e O :.<.b.K.i L.Q M.N.3.O.P.U Q.D.R.S.T./ 5 ( ( _ '.: ",
". % % % < < U.!.!.^.^.7.7.7.V.W.X.Y.Z.`. +w #.<..+++i *.@+#+2.3.$+%+&+*+=+-+S.;+>+T.5 ( _ _ ,+: ",
". & & & < '+Y Y  . .^.^.^.^.^. .8.)+!+~+{+x <.s.t.i *.|.1.2.3.4.i.j.C.]+^+S./+>+(+_+:+( ( _ '.: ",
". & & & W U.Y <+/. . . .[+}+8.8.)+|+1+2+Q 3+.+4+i *.|.-.5+h.$+%+B.C.D.6+7+/+>+(+8+9+0+( _ _ '.: ",
". * * * '+a+b+c+d+/.8.e+f+g+/.)+|+1+s h+i+j+t.k+l+m+1.5+n+o+%+B.C.D.p+q+r+s+(+t+9+u+v+:+w+,+x+: ",
". * * * b y+z+A+B+c+c+d+C+M D+E+F+G+H+Q I+t.i J+Q K+2.3.L+Q M+N+O+P+Q+R+S+(+t+9+T+U+V+W+_ '.,+: ",
". * * E.y+X+Y+Y+1+A+A+B+A+Z+`+Q Q Q  @.@t.i *.+@Q @@3.4.i.#@$@Q Q %@&@*@(+t+=@u+U+V+-@;@>@'.,@: ",
". = R.'@y+U.t t s s Y+Y+Y+s d )@!@~@b.K.i *.|.1.2.3.4.%+j.{@D.]@^@/@>+(+t+=@u+(@V+-@_@:@<@,+,@: ",
". = * b y+[@[@}@}@}@|@1@1@1@1@2@2@2@2@3@3@4@4@4@5@5@5@6@6@6@7@8@8@9@9@0@a@b@b@b@c@c@d@d@d@,@e@: ",
". = = U.y+c u u f f v w x f@:.<..+++i *.|.g@2.3.4.i.j.{@D.R.S./+s+(+8+=@u+U+V+-@_@:@h@i@j@x+e@: ",
". - = X+y+d u f f v w x O :.<..+++i *.=.1.2.3.$+%+k@{@7 l@S.;+s+(+t+=@u+U+V+m@_@:@h@i@n@o@e@e@: ",
". - - y+y+[@[@[@}@|@|@1@1@1@1@2@2@2@2@3@3@3@4@4@5@5@5@6@6@7@7@8@8@9@9@a@a@a@b@c@c@c@d@d@d@e@p@: ",
". ; - y+y+u f v w x O :.a..+t.i *.|.1.q@3.4.%+j.{@D.l@S.;+s+(+t+9+u+U+V+-@_@r@h@i@n@s@t@u@e@p@: ",
". ; ; y+y+e v w x O :.a.s.t.i *.|.v@2.3.4.i.j.C.7 l@S./+>+(+t+9+u+(@V+m@_@:@h@i@n@s@t@u@w@p@x@: ",
". ; ; y+y+[@[@}@}@|@|@|@1@1@1@2@2@2@2@3@3@4@4@4@5@5@5@6@6@7@7@8@8@9@0@0@a@b@b@c@c@c@d@d@d@p@p@: ",
". [ > X+y+g x O :.<.s.y@i *.|.1.q@3.4.%+j.C.D.-+S./+>+(+8+=@u+z@V+m@A@r@h@i@n@s@t@w@B@C@D@p@x@: ",
". [ > U.X+a O :.a..+4+i *.|.1.2.3.$+%+j.C.D.-+S./+>+(+8+9+T+z@V+-@_@:@h@i@n@s@E@w@B@C@F@o@x@x@: ",
". , , b X+[@[@[@}@|@|@1@1@1@1@2@2@2@3@3@3@3@4@4@5@5@5@6@6@7@7@8@8@9@9@0@a@b@b@b@c@c@d@d@d@x@x@: ",
". , , '@X+b <..+K.i *.|.1.2.3.$+%+j.C.7 -+S.;+>+(+t+9+u+U+G@H@_@r@h@i@n@s@t@u@B@C@F@I@J@K@x@L@: ",
". , ) j X+U.h &.i *.|.M@2.3.4.i.j.{@D.-+S./+s+(+8+9+u+U+V+m@_@:@h@i@n@s@E@w@B@C@F@I@J@N@O@P@L@: ",
". ) ) , b X+a i *.|.-.2.3.4.i.j.{@D.l@S.;+>+(+8+9+u+U+V+m@_@:@h@i@n@s@E@u@B@C@F@I@J@Q@R@x@S@S@: ",
". ) ) ) T@X+b U@|.1.q@3.$+i.B.C.D.R.S.;+>+(+8+9+u+z@G@-@_@r@h@i@n@s@E@u@B@C@F@I@J@Q@V@<@L@S@S@: ",
". ! ! ) ) b X+'@1.2.3.4.i.j.{@D.W@S.;+>+(+t+9+u+X@V+-@_@r@h@i@n@s@t@w@B@C@F@I@J@Q@Y@Z@P@L@S@S@: ",
". } ! k } T@U.b U@3.`@%+B.C.D.l@S.;+>+(+t+=@u+U+G@m@_@r@h@i@n@s@t@u@B@V@F@ #J@Q@Y@.#+#L@S@S@S@: ",
". } } k ~ } a U.a `@%+B.C.D.-+S.;+s+(+t+=@u+z@V+m@_@:@h@i@n@s@t@@#B@C@F@ #J@Q@Y@Y@##S@L@S@S@S@: ",
". ~ ~ ~ ~ { l b U.'+j.C.D.l@S./+s+(+8+9+u+U+G@m@_@:@h@i@n@s@t@@#B@C@F@ #J@Q@Y@Y@$#L@S@S@S@%#&#: ",
". | | | | | | *#b b 0 D.-+S.;+s+(+8+=@u+U+V+-@_@r@h@i@n@s@t@w@B@C@F@I@J@Q@Y@Y@=#-#L@S@S@S@&#&#: ",
". { { ,.{ 1 1 ,.*#b b 0 S./+s+(+8+9+u+U+G@m@_@:@h@i@n@s@t@w@B@C@F@I@J@Q@Y@Y@=#-#S@S@S@S@%#&#&#: ",
". 3 3 ,.] ,.3 3 3 *#c b 0 >+(+t+9+u+U+G@m@_@r@h@i@n@s@t@w@B@C@F@I@J@Q@Y@Y@$#-#L@S@S@S@%#%#&#;#: ",
". 3 ^ 3 ^ ^ ^ ^ ^ ^ ^ a U.'+>#=@T+U+G@m@_@:@h@i@n@s@E@w@B@C@F@I@J@Q@Y@.###L@L@S@S@S@S@&#&#;#;#: ",
". ^ ^ ^ ^ ^ ^ ^ / / >@>@T@a a ,#'#V+-@_@:@h@i@n@s@E@@#B@C@F@I@J@Q@C@Z@+#L@S@L@S@S@S@&#&#&#;#)#: ",
". / ^ / / / / / / 5 5 >@4 4 T@a '@,#'#:@h@i@n@s@t@u@B@C@F@I@J@D@R@<@x@L@L@S@S@%#S@&#&#&#;#;#;#: ",
". 4 5 4 4 4 4 5 5 4 4 ( ( ( ( ( !#h '@'+~#{#]#:@E@u@^#_@]###K@O@x@L@L@L@S@S@%#%#%#&#;#)#/#(#;#: ",
". ( 5 5 ( 5 ( 5 ( ( ( ( ( _ _ _ _#'.e@,+x+'.,@'.,@e@e@p@e@x@x@x@L@S@L@S@S@%#&#&#&#&#;#)#;#(#:#: ",
". ( ( ( ( ( ( ( ( ( ( _ _ _ '.'._#,+,+,@,@,@e@e@e@p@p@x@x@x@L@L@S@L@S@S@%#&#&#&#;#;#;#<#:#(#:#: ",
". _ _ _ _ _ _ _ _ '._ _#'._#'.x+,+x+x+,@e@e@e@p@p@p@x@x@x@x@S@S@S@S@S@&#%#&#&#&#&#)#:#:#(#:#:#: ",
"  : : : : : : : : : : : : : : : : : : : : : : : : : : : : : : : : : : : : : : : : : : : : : :   "};
